<mxfile host="65bd71144e">
    <diagram id="nwCqdlOOkmA4SMYe02t4" name="Page-1">
        <mxGraphModel dx="1296" dy="956" grid="1" gridSize="10" guides="1" tooltips="1" connect="1" arrows="1" fold="1" page="1" pageScale="1" pageWidth="1600" pageHeight="1200" math="0" shadow="0">
            <root>
                <mxCell id="0"/>
                <mxCell id="1" parent="0"/>
                <mxCell id="746" value="" style="rounded=0;whiteSpace=wrap;html=1;strokeColor=#d6b656;fontSize=16;fillColor=#BFB599;gradientColor=#ffd966;" vertex="1" parent="1">
                    <mxGeometry width="420" height="70" as="geometry"/>
                </mxCell>
                <mxCell id="63" value="" style="rounded=0;whiteSpace=wrap;html=1;strokeColor=none;fontSize=16;fontColor=#000000;fillColor=#858585;" vertex="1" parent="1">
                    <mxGeometry x="1560" y="40" width="40" height="1120" as="geometry"/>
                </mxCell>
                <mxCell id="86" value="" style="group" vertex="1" connectable="0" parent="1">
                    <mxGeometry x="620" y="830" width="40" height="70" as="geometry"/>
                </mxCell>
                <mxCell id="80" value="" style="shape=offPageConnector;whiteSpace=wrap;html=1;strokeColor=#000000;fontSize=16;fontColor=#000000;fillColor=#808080;rotation=-180;" vertex="1" parent="86">
                    <mxGeometry width="40" height="70" as="geometry"/>
                </mxCell>
                <mxCell id="81" value="" style="whiteSpace=wrap;html=1;aspect=fixed;fillColor=#f9f7ed;strokeColor=#000000;" vertex="1" parent="86">
                    <mxGeometry x="5" y="34.5" width="30" height="30" as="geometry"/>
                </mxCell>
                <mxCell id="99" value="" style="group" vertex="1" connectable="0" parent="1">
                    <mxGeometry x="390" y="80" width="50" height="80" as="geometry"/>
                </mxCell>
                <mxCell id="100" value="" style="shape=offPageConnector;whiteSpace=wrap;html=1;strokeColor=#000000;fontSize=16;fontColor=#000000;fillColor=#808080;rotation=-180;" vertex="1" parent="99">
                    <mxGeometry width="50" height="80" as="geometry"/>
                </mxCell>
                <mxCell id="101" value="" style="ellipse;whiteSpace=wrap;html=1;aspect=fixed;fillColor=#f9f7ed;strokeColor=#36393d;" vertex="1" parent="99">
                    <mxGeometry x="5" y="34.5" width="40" height="40" as="geometry"/>
                </mxCell>
                <mxCell id="82" value="" style="shape=offPageConnector;whiteSpace=wrap;html=1;strokeColor=#000000;fontSize=16;fontColor=#000000;fillColor=#808080;rotation=-180;" vertex="1" parent="1">
                    <mxGeometry x="660" y="820" width="50" height="80" as="geometry"/>
                </mxCell>
                <mxCell id="83" value="" style="ellipse;whiteSpace=wrap;html=1;aspect=fixed;" vertex="1" parent="1">
                    <mxGeometry x="665" y="854.5" width="40" height="40" as="geometry"/>
                </mxCell>
                <mxCell id="97" value="" style="shape=offPageConnector;whiteSpace=wrap;html=1;strokeColor=#000000;fontSize=16;fontColor=#000000;fillColor=#808080;rotation=-180;container=0;" vertex="1" parent="1">
                    <mxGeometry x="440" y="90" width="40" height="70" as="geometry"/>
                </mxCell>
                <mxCell id="98" value="" style="whiteSpace=wrap;html=1;aspect=fixed;fillColor=#e6d0de;strokeColor=#000000;container=0;gradientColor=#d5739d;" vertex="1" parent="1">
                    <mxGeometry x="445" y="124.5" width="30" height="30" as="geometry"/>
                </mxCell>
                <mxCell id="85" value="" style="group" vertex="1" connectable="0" parent="1">
                    <mxGeometry x="200" y="110" width="50" height="50" as="geometry"/>
                </mxCell>
                <mxCell id="68" value="" style="shape=offPageConnector;whiteSpace=wrap;html=1;strokeColor=#000000;fontSize=16;fontColor=#000000;fillColor=#808080;rotation=-180;" vertex="1" parent="85">
                    <mxGeometry width="50" height="50" as="geometry"/>
                </mxCell>
                <mxCell id="66" value="&lt;font color=&quot;#000000&quot;&gt;2&lt;/font&gt;" style="ellipse;whiteSpace=wrap;html=1;aspect=fixed;fillColor=#f9f7ed;strokeColor=#36393d;" vertex="1" parent="85">
                    <mxGeometry x="5" y="9" width="40" height="40" as="geometry"/>
                </mxCell>
                <mxCell id="67" value="" style="whiteSpace=wrap;html=1;aspect=fixed;fillColor=#f9f7ed;strokeColor=#000000;" vertex="1" parent="85">
                    <mxGeometry x="10" y="14" width="30" height="30" as="geometry"/>
                </mxCell>
                <mxCell id="88" value="" style="group" vertex="1" connectable="0" parent="1">
                    <mxGeometry x="260" y="110" width="50" height="50" as="geometry"/>
                </mxCell>
                <mxCell id="89" value="" style="shape=offPageConnector;whiteSpace=wrap;html=1;strokeColor=#000000;fontSize=16;fontColor=#000000;fillColor=#808080;rotation=-180;" vertex="1" parent="88">
                    <mxGeometry width="50" height="50" as="geometry"/>
                </mxCell>
                <mxCell id="90" value="&lt;font color=&quot;#000000&quot;&gt;2&lt;/font&gt;" style="ellipse;whiteSpace=wrap;html=1;aspect=fixed;fillColor=#f9f7ed;strokeColor=#36393d;" vertex="1" parent="88">
                    <mxGeometry x="5" y="9" width="40" height="40" as="geometry"/>
                </mxCell>
                <mxCell id="91" value="" style="whiteSpace=wrap;html=1;aspect=fixed;fillColor=#f9f7ed;strokeColor=#000000;" vertex="1" parent="88">
                    <mxGeometry x="10" y="14" width="30" height="30" as="geometry"/>
                </mxCell>
                <mxCell id="92" value="" style="group" vertex="1" connectable="0" parent="1">
                    <mxGeometry x="320" y="110" width="50" height="50" as="geometry"/>
                </mxCell>
                <mxCell id="93" value="" style="shape=offPageConnector;whiteSpace=wrap;html=1;strokeColor=#000000;fontSize=16;fontColor=#000000;fillColor=#808080;rotation=-180;" vertex="1" parent="92">
                    <mxGeometry width="50" height="50" as="geometry"/>
                </mxCell>
                <mxCell id="94" value="&lt;font color=&quot;#000000&quot;&gt;2&lt;/font&gt;" style="ellipse;whiteSpace=wrap;html=1;aspect=fixed;fillColor=#f9f7ed;strokeColor=#36393d;" vertex="1" parent="92">
                    <mxGeometry x="5" y="9" width="40" height="40" as="geometry"/>
                </mxCell>
                <mxCell id="95" value="" style="whiteSpace=wrap;html=1;aspect=fixed;fillColor=#f9f7ed;strokeColor=#000000;" vertex="1" parent="92">
                    <mxGeometry x="10" y="14" width="30" height="30" as="geometry"/>
                </mxCell>
                <mxCell id="119" value="" style="group" vertex="1" connectable="0" parent="1">
                    <mxGeometry x="360" y="430" width="40" height="70" as="geometry"/>
                </mxCell>
                <mxCell id="120" value="" style="shape=offPageConnector;whiteSpace=wrap;html=1;strokeColor=#000000;fontSize=16;fontColor=#000000;fillColor=#808080;rotation=-180;" vertex="1" parent="119">
                    <mxGeometry width="40" height="70" as="geometry"/>
                </mxCell>
                <mxCell id="121" value="" style="whiteSpace=wrap;html=1;aspect=fixed;fillColor=#f9f7ed;strokeColor=#000000;" vertex="1" parent="119">
                    <mxGeometry x="5" y="34.5" width="30" height="30" as="geometry"/>
                </mxCell>
                <mxCell id="122" value="" style="group" vertex="1" connectable="0" parent="1">
                    <mxGeometry x="400" y="430" width="40" height="70" as="geometry"/>
                </mxCell>
                <mxCell id="123" value="" style="shape=offPageConnector;whiteSpace=wrap;html=1;strokeColor=#000000;fontSize=16;fontColor=#000000;fillColor=#808080;rotation=-180;" vertex="1" parent="122">
                    <mxGeometry width="40" height="70" as="geometry"/>
                </mxCell>
                <mxCell id="124" value="" style="whiteSpace=wrap;html=1;aspect=fixed;fillColor=#ffcd28;strokeColor=#000000;gradientColor=#ffa500;" vertex="1" parent="122">
                    <mxGeometry x="5" y="34.5" width="30" height="30" as="geometry"/>
                </mxCell>
                <mxCell id="125" value="" style="group" vertex="1" connectable="0" parent="1">
                    <mxGeometry x="440" y="430" width="40" height="70" as="geometry"/>
                </mxCell>
                <mxCell id="126" value="" style="shape=offPageConnector;whiteSpace=wrap;html=1;strokeColor=#000000;fontSize=16;fontColor=#000000;fillColor=#808080;rotation=-180;" vertex="1" parent="125">
                    <mxGeometry width="40" height="70" as="geometry"/>
                </mxCell>
                <mxCell id="127" value="" style="whiteSpace=wrap;html=1;aspect=fixed;" vertex="1" parent="125">
                    <mxGeometry x="5" y="34.5" width="30" height="30" as="geometry"/>
                </mxCell>
                <mxCell id="103" value="" style="group" vertex="1" connectable="0" parent="1">
                    <mxGeometry x="400" y="300" width="50" height="50" as="geometry"/>
                </mxCell>
                <mxCell id="104" value="" style="shape=offPageConnector;whiteSpace=wrap;html=1;strokeColor=#000000;fontSize=16;fontColor=#000000;fillColor=#808080;rotation=-180;" vertex="1" parent="103">
                    <mxGeometry width="50" height="50" as="geometry"/>
                </mxCell>
                <mxCell id="105" value="&lt;font color=&quot;#000000&quot;&gt;2&lt;/font&gt;" style="ellipse;whiteSpace=wrap;html=1;aspect=fixed;fillColor=#f9f7ed;strokeColor=#36393d;" vertex="1" parent="103">
                    <mxGeometry x="5" y="9" width="40" height="40" as="geometry"/>
                </mxCell>
                <mxCell id="106" value="" style="whiteSpace=wrap;html=1;aspect=fixed;fillColor=#f9f7ed;strokeColor=#000000;" vertex="1" parent="103">
                    <mxGeometry x="10" y="14" width="30" height="30" as="geometry"/>
                </mxCell>
                <mxCell id="107" value="" style="group" vertex="1" connectable="0" parent="1">
                    <mxGeometry x="400" y="240" width="50" height="50" as="geometry"/>
                </mxCell>
                <mxCell id="108" value="" style="shape=offPageConnector;whiteSpace=wrap;html=1;strokeColor=#000000;fontSize=16;fontColor=#000000;fillColor=#808080;rotation=-180;" vertex="1" parent="107">
                    <mxGeometry width="50" height="50" as="geometry"/>
                </mxCell>
                <mxCell id="109" value="&lt;font color=&quot;#000000&quot;&gt;2&lt;/font&gt;" style="ellipse;whiteSpace=wrap;html=1;aspect=fixed;fillColor=#f9f7ed;strokeColor=#36393d;" vertex="1" parent="107">
                    <mxGeometry x="5" y="9" width="40" height="40" as="geometry"/>
                </mxCell>
                <mxCell id="110" value="" style="whiteSpace=wrap;html=1;aspect=fixed;fillColor=#f9f7ed;strokeColor=#000000;" vertex="1" parent="107">
                    <mxGeometry x="10" y="14" width="30" height="30" as="geometry"/>
                </mxCell>
                <mxCell id="111" value="" style="group" vertex="1" connectable="0" parent="1">
                    <mxGeometry x="400" y="170" width="50" height="50" as="geometry"/>
                </mxCell>
                <mxCell id="112" value="" style="shape=offPageConnector;whiteSpace=wrap;html=1;strokeColor=#000000;fontSize=16;fontColor=#000000;fillColor=#808080;rotation=-180;" vertex="1" parent="111">
                    <mxGeometry width="50" height="50" as="geometry"/>
                </mxCell>
                <mxCell id="113" value="&lt;font color=&quot;#000000&quot;&gt;2&lt;/font&gt;" style="ellipse;whiteSpace=wrap;html=1;aspect=fixed;fillColor=#f9f7ed;strokeColor=#36393d;" vertex="1" parent="111">
                    <mxGeometry x="5" y="9" width="40" height="40" as="geometry"/>
                </mxCell>
                <mxCell id="114" value="" style="whiteSpace=wrap;html=1;aspect=fixed;fillColor=#f9f7ed;strokeColor=#000000;" vertex="1" parent="111">
                    <mxGeometry x="10" y="14" width="30" height="30" as="geometry"/>
                </mxCell>
                <mxCell id="115" value="" style="group" vertex="1" connectable="0" parent="1">
                    <mxGeometry x="400" y="360" width="50" height="50" as="geometry"/>
                </mxCell>
                <mxCell id="116" value="" style="shape=offPageConnector;whiteSpace=wrap;html=1;strokeColor=#000000;fontSize=16;fontColor=#000000;fillColor=#808080;rotation=-180;" vertex="1" parent="115">
                    <mxGeometry width="50" height="50" as="geometry"/>
                </mxCell>
                <mxCell id="117" value="&lt;font color=&quot;#000000&quot;&gt;2&lt;/font&gt;" style="ellipse;whiteSpace=wrap;html=1;aspect=fixed;fillColor=#f9f7ed;strokeColor=#36393d;" vertex="1" parent="115">
                    <mxGeometry x="5" y="9" width="40" height="40" as="geometry"/>
                </mxCell>
                <mxCell id="118" value="" style="whiteSpace=wrap;html=1;aspect=fixed;fillColor=#f9f7ed;strokeColor=#000000;" vertex="1" parent="115">
                    <mxGeometry x="10" y="14" width="30" height="30" as="geometry"/>
                </mxCell>
                <mxCell id="142" value="" style="group" vertex="1" connectable="0" parent="1">
                    <mxGeometry x="190" y="370" width="50" height="50" as="geometry"/>
                </mxCell>
                <mxCell id="143" value="" style="shape=offPageConnector;whiteSpace=wrap;html=1;strokeColor=#000000;fontSize=16;fontColor=#000000;fillColor=#808080;rotation=-180;" vertex="1" parent="142">
                    <mxGeometry width="50" height="50" as="geometry"/>
                </mxCell>
                <mxCell id="144" value="&lt;font color=&quot;#000000&quot;&gt;2&lt;/font&gt;" style="ellipse;whiteSpace=wrap;html=1;aspect=fixed;fillColor=#f9f7ed;strokeColor=#36393d;" vertex="1" parent="142">
                    <mxGeometry x="5" y="9" width="40" height="40" as="geometry"/>
                </mxCell>
                <mxCell id="145" value="" style="whiteSpace=wrap;html=1;aspect=fixed;fillColor=#f9f7ed;strokeColor=#000000;" vertex="1" parent="142">
                    <mxGeometry x="10" y="14" width="30" height="30" as="geometry"/>
                </mxCell>
                <mxCell id="146" value="" style="group" vertex="1" connectable="0" parent="1">
                    <mxGeometry x="270" y="400" width="50" height="50" as="geometry"/>
                </mxCell>
                <mxCell id="147" value="" style="shape=offPageConnector;whiteSpace=wrap;html=1;strokeColor=#000000;fontSize=16;fontColor=#000000;fillColor=#808080;rotation=-180;" vertex="1" parent="146">
                    <mxGeometry width="50" height="50" as="geometry"/>
                </mxCell>
                <mxCell id="148" value="&lt;font color=&quot;#000000&quot;&gt;2&lt;/font&gt;" style="ellipse;whiteSpace=wrap;html=1;aspect=fixed;fillColor=#f9f7ed;strokeColor=#36393d;" vertex="1" parent="146">
                    <mxGeometry x="5" y="9" width="40" height="40" as="geometry"/>
                </mxCell>
                <mxCell id="149" value="" style="whiteSpace=wrap;html=1;aspect=fixed;fillColor=#f9f7ed;strokeColor=#000000;" vertex="1" parent="146">
                    <mxGeometry x="10" y="14" width="30" height="30" as="geometry"/>
                </mxCell>
                <mxCell id="157" value="" style="group" vertex="1" connectable="0" parent="1">
                    <mxGeometry x="1010" y="410" width="40" height="70" as="geometry"/>
                </mxCell>
                <mxCell id="158" value="" style="shape=offPageConnector;whiteSpace=wrap;html=1;strokeColor=#000000;fontSize=16;fontColor=#000000;fillColor=#808080;rotation=-180;" vertex="1" parent="157">
                    <mxGeometry width="40" height="70" as="geometry"/>
                </mxCell>
                <mxCell id="159" value="" style="whiteSpace=wrap;html=1;aspect=fixed;fillColor=#e6d0de;strokeColor=#000000;gradientColor=#d5739d;" vertex="1" parent="157">
                    <mxGeometry x="5" y="34.5" width="30" height="30" as="geometry"/>
                </mxCell>
                <mxCell id="170" value="" style="group" vertex="1" connectable="0" parent="1">
                    <mxGeometry x="50" y="830" width="50" height="50" as="geometry"/>
                </mxCell>
                <mxCell id="171" value="" style="shape=offPageConnector;whiteSpace=wrap;html=1;strokeColor=#000000;fontSize=16;fontColor=#000000;fillColor=#808080;rotation=-180;" vertex="1" parent="170">
                    <mxGeometry width="50" height="50" as="geometry"/>
                </mxCell>
                <mxCell id="172" value="&lt;font color=&quot;#000000&quot;&gt;2&lt;/font&gt;" style="ellipse;whiteSpace=wrap;html=1;aspect=fixed;fillColor=#f9f7ed;strokeColor=#36393d;" vertex="1" parent="170">
                    <mxGeometry x="5" y="9" width="40" height="40" as="geometry"/>
                </mxCell>
                <mxCell id="173" value="" style="whiteSpace=wrap;html=1;aspect=fixed;fillColor=#f9f7ed;strokeColor=#000000;" vertex="1" parent="170">
                    <mxGeometry x="10" y="14" width="30" height="30" as="geometry"/>
                </mxCell>
                <mxCell id="174" value="" style="group" vertex="1" connectable="0" parent="1">
                    <mxGeometry x="70" y="770" width="50" height="50" as="geometry"/>
                </mxCell>
                <mxCell id="175" value="" style="shape=offPageConnector;whiteSpace=wrap;html=1;strokeColor=#000000;fontSize=16;fontColor=#000000;fillColor=#808080;rotation=-180;" vertex="1" parent="174">
                    <mxGeometry width="50" height="50" as="geometry"/>
                </mxCell>
                <mxCell id="176" value="&lt;font color=&quot;#000000&quot;&gt;2&lt;/font&gt;" style="ellipse;whiteSpace=wrap;html=1;aspect=fixed;fillColor=#f9f7ed;strokeColor=#36393d;" vertex="1" parent="174">
                    <mxGeometry x="5" y="9" width="40" height="40" as="geometry"/>
                </mxCell>
                <mxCell id="177" value="" style="whiteSpace=wrap;html=1;aspect=fixed;fillColor=#f9f7ed;strokeColor=#000000;" vertex="1" parent="174">
                    <mxGeometry x="10" y="14" width="30" height="30" as="geometry"/>
                </mxCell>
                <mxCell id="178" value="" style="group" vertex="1" connectable="0" parent="1">
                    <mxGeometry x="120" y="730" width="50" height="50" as="geometry"/>
                </mxCell>
                <mxCell id="179" value="" style="shape=offPageConnector;whiteSpace=wrap;html=1;strokeColor=#000000;fontSize=16;fontColor=#000000;fillColor=#808080;rotation=-180;" vertex="1" parent="178">
                    <mxGeometry width="50" height="50" as="geometry"/>
                </mxCell>
                <mxCell id="180" value="&lt;font color=&quot;#000000&quot;&gt;2&lt;/font&gt;" style="ellipse;whiteSpace=wrap;html=1;aspect=fixed;fillColor=#f9f7ed;strokeColor=#36393d;" vertex="1" parent="178">
                    <mxGeometry x="5" y="9" width="40" height="40" as="geometry"/>
                </mxCell>
                <mxCell id="181" value="" style="whiteSpace=wrap;html=1;aspect=fixed;fillColor=#f9f7ed;strokeColor=#000000;" vertex="1" parent="178">
                    <mxGeometry x="10" y="14" width="30" height="30" as="geometry"/>
                </mxCell>
                <mxCell id="183" value="" style="group" vertex="1" connectable="0" parent="1">
                    <mxGeometry x="80" y="640" width="50" height="80" as="geometry"/>
                </mxCell>
                <mxCell id="184" value="" style="shape=offPageConnector;whiteSpace=wrap;html=1;strokeColor=#000000;fontSize=16;fontColor=#000000;fillColor=#808080;rotation=-180;" vertex="1" parent="183">
                    <mxGeometry width="50" height="80" as="geometry"/>
                </mxCell>
                <mxCell id="185" value="" style="ellipse;whiteSpace=wrap;html=1;aspect=fixed;fillColor=#f9f7ed;strokeColor=#000000;" vertex="1" parent="183">
                    <mxGeometry x="5" y="34.5" width="40" height="40" as="geometry"/>
                </mxCell>
                <mxCell id="186" value="" style="group;strokeColor=#000000;fontSize=16;fontColor=#000000;fillColor=none;" vertex="1" connectable="0" parent="1">
                    <mxGeometry x="40" y="650" width="40" height="70" as="geometry"/>
                </mxCell>
                <mxCell id="187" value="" style="shape=offPageConnector;whiteSpace=wrap;html=1;strokeColor=#000000;fontSize=16;fontColor=#000000;fillColor=#808080;rotation=-180;" vertex="1" parent="186">
                    <mxGeometry width="40" height="70" as="geometry"/>
                </mxCell>
                <mxCell id="188" value="" style="whiteSpace=wrap;html=1;aspect=fixed;fillColor=#f9f7ed;strokeColor=#000000;fontSize=16;fontColor=#000000;" vertex="1" parent="186">
                    <mxGeometry x="5" y="34.5" width="30" height="30" as="geometry"/>
                </mxCell>
                <mxCell id="189" value="" style="group;strokeColor=#000000;fontSize=16;fontColor=#000000;fillColor=none;" vertex="1" connectable="0" parent="1">
                    <mxGeometry x="130" y="650" width="40" height="70" as="geometry"/>
                </mxCell>
                <mxCell id="190" value="" style="shape=offPageConnector;whiteSpace=wrap;html=1;strokeColor=#000000;fontSize=16;fontColor=#000000;fillColor=#808080;rotation=-180;" vertex="1" parent="189">
                    <mxGeometry width="40" height="70" as="geometry"/>
                </mxCell>
                <mxCell id="191" value="" style="whiteSpace=wrap;html=1;aspect=fixed;fillColor=#ffcd28;strokeColor=#000000;fontSize=16;gradientColor=#ffa500;" vertex="1" parent="189">
                    <mxGeometry x="5" y="34.5" width="30" height="30" as="geometry"/>
                </mxCell>
                <mxCell id="192" value="" style="group;strokeColor=#000000;fontSize=16;fontColor=#000000;fillColor=none;" vertex="1" connectable="0" parent="1">
                    <mxGeometry x="170" y="650" width="40" height="70" as="geometry"/>
                </mxCell>
                <mxCell id="193" value="" style="shape=offPageConnector;whiteSpace=wrap;html=1;strokeColor=#000000;fontSize=16;fontColor=#000000;fillColor=#808080;rotation=-180;" vertex="1" parent="192">
                    <mxGeometry width="40" height="70" as="geometry"/>
                </mxCell>
                <mxCell id="194" value="" style="whiteSpace=wrap;html=1;aspect=fixed;fillColor=#e6d0de;strokeColor=#000000;fontSize=16;gradientColor=#d5739d;" vertex="1" parent="192">
                    <mxGeometry x="5" y="34.5" width="30" height="30" as="geometry"/>
                </mxCell>
                <mxCell id="195" value="" style="group;strokeColor=#000000;fontSize=16;fontColor=#000000;fillColor=none;" vertex="1" connectable="0" parent="1">
                    <mxGeometry x="970" y="410" width="40" height="70" as="geometry"/>
                </mxCell>
                <mxCell id="196" value="" style="shape=offPageConnector;whiteSpace=wrap;html=1;strokeColor=#000000;fontSize=16;fontColor=#000000;fillColor=#808080;rotation=-180;" vertex="1" parent="195">
                    <mxGeometry width="40" height="70" as="geometry"/>
                </mxCell>
                <mxCell id="197" value="" style="whiteSpace=wrap;html=1;aspect=fixed;fillColor=#f9f7ed;strokeColor=#000000;fontSize=16;fontColor=#000000;" vertex="1" parent="195">
                    <mxGeometry x="5" y="34.5" width="30" height="30" as="geometry"/>
                </mxCell>
                <mxCell id="199" value="" style="group" vertex="1" connectable="0" parent="1">
                    <mxGeometry x="80" y="550" width="50" height="50" as="geometry"/>
                </mxCell>
                <mxCell id="200" value="" style="shape=offPageConnector;whiteSpace=wrap;html=1;strokeColor=#000000;fontSize=16;fontColor=#000000;fillColor=#808080;rotation=-180;" vertex="1" parent="199">
                    <mxGeometry width="50" height="50" as="geometry"/>
                </mxCell>
                <mxCell id="201" value="&lt;font color=&quot;#000000&quot;&gt;2&lt;/font&gt;" style="ellipse;whiteSpace=wrap;html=1;aspect=fixed;fillColor=#f9f7ed;strokeColor=#36393d;" vertex="1" parent="199">
                    <mxGeometry x="5" y="9" width="40" height="40" as="geometry"/>
                </mxCell>
                <mxCell id="202" value="" style="whiteSpace=wrap;html=1;aspect=fixed;fillColor=#f9f7ed;strokeColor=#000000;" vertex="1" parent="199">
                    <mxGeometry x="10" y="14" width="30" height="30" as="geometry"/>
                </mxCell>
                <mxCell id="203" value="" style="group" vertex="1" connectable="0" parent="1">
                    <mxGeometry x="80" y="490" width="50" height="50" as="geometry"/>
                </mxCell>
                <mxCell id="204" value="" style="shape=offPageConnector;whiteSpace=wrap;html=1;strokeColor=#000000;fontSize=16;fontColor=#000000;fillColor=#808080;rotation=-180;" vertex="1" parent="203">
                    <mxGeometry width="50" height="50" as="geometry"/>
                </mxCell>
                <mxCell id="205" value="&lt;font color=&quot;#000000&quot;&gt;2&lt;/font&gt;" style="ellipse;whiteSpace=wrap;html=1;aspect=fixed;fillColor=#f9f7ed;strokeColor=#36393d;" vertex="1" parent="203">
                    <mxGeometry x="5" y="9" width="40" height="40" as="geometry"/>
                </mxCell>
                <mxCell id="206" value="" style="whiteSpace=wrap;html=1;aspect=fixed;fillColor=#f9f7ed;strokeColor=#000000;" vertex="1" parent="203">
                    <mxGeometry x="10" y="14" width="30" height="30" as="geometry"/>
                </mxCell>
                <mxCell id="207" value="" style="group" vertex="1" connectable="0" parent="1">
                    <mxGeometry x="80" y="430" width="50" height="50" as="geometry"/>
                </mxCell>
                <mxCell id="208" value="" style="shape=offPageConnector;whiteSpace=wrap;html=1;strokeColor=#000000;fontSize=16;fontColor=#000000;fillColor=#808080;rotation=-180;" vertex="1" parent="207">
                    <mxGeometry width="50" height="50" as="geometry"/>
                </mxCell>
                <mxCell id="209" value="&lt;font color=&quot;#000000&quot;&gt;2&lt;/font&gt;" style="ellipse;whiteSpace=wrap;html=1;aspect=fixed;fillColor=#f9f7ed;strokeColor=#36393d;" vertex="1" parent="207">
                    <mxGeometry x="5" y="9" width="40" height="40" as="geometry"/>
                </mxCell>
                <mxCell id="210" value="" style="whiteSpace=wrap;html=1;aspect=fixed;fillColor=#f9f7ed;strokeColor=#000000;" vertex="1" parent="207">
                    <mxGeometry x="10" y="14" width="30" height="30" as="geometry"/>
                </mxCell>
                <mxCell id="211" value="" style="group;strokeColor=#000000;fontSize=16;fontColor=#000000;fillColor=none;" vertex="1" connectable="0" parent="1">
                    <mxGeometry x="90" y="890" width="40" height="70" as="geometry"/>
                </mxCell>
                <mxCell id="212" value="" style="shape=offPageConnector;whiteSpace=wrap;html=1;strokeColor=#000000;fontSize=16;fontColor=#000000;fillColor=#808080;rotation=-180;" vertex="1" parent="211">
                    <mxGeometry width="40" height="70" as="geometry"/>
                </mxCell>
                <mxCell id="213" value="" style="whiteSpace=wrap;html=1;aspect=fixed;fillColor=#f9f7ed;strokeColor=#000000;fontSize=16;fontColor=#000000;" vertex="1" parent="211">
                    <mxGeometry x="5" y="34.5" width="30" height="30" as="geometry"/>
                </mxCell>
                <mxCell id="214" value="" style="group" vertex="1" connectable="0" parent="1">
                    <mxGeometry x="160" y="910" width="50" height="50" as="geometry"/>
                </mxCell>
                <mxCell id="215" value="" style="shape=offPageConnector;whiteSpace=wrap;html=1;strokeColor=#000000;fontSize=16;fontColor=#000000;fillColor=#808080;rotation=-180;" vertex="1" parent="214">
                    <mxGeometry width="50" height="50" as="geometry"/>
                </mxCell>
                <mxCell id="216" value="&lt;font color=&quot;#000000&quot;&gt;2&lt;/font&gt;" style="ellipse;whiteSpace=wrap;html=1;aspect=fixed;fillColor=#f9f7ed;strokeColor=#36393d;" vertex="1" parent="214">
                    <mxGeometry x="5" y="9" width="40" height="40" as="geometry"/>
                </mxCell>
                <mxCell id="217" value="" style="whiteSpace=wrap;html=1;aspect=fixed;fillColor=#f9f7ed;strokeColor=#000000;" vertex="1" parent="214">
                    <mxGeometry x="10" y="14" width="30" height="30" as="geometry"/>
                </mxCell>
                <mxCell id="218" value="" style="group" vertex="1" connectable="0" parent="1">
                    <mxGeometry x="220" y="910" width="50" height="50" as="geometry"/>
                </mxCell>
                <mxCell id="219" value="" style="shape=offPageConnector;whiteSpace=wrap;html=1;strokeColor=#000000;fontSize=16;fontColor=#000000;fillColor=#808080;rotation=-180;" vertex="1" parent="218">
                    <mxGeometry width="50" height="50" as="geometry"/>
                </mxCell>
                <mxCell id="220" value="&lt;font color=&quot;#000000&quot;&gt;2&lt;/font&gt;" style="ellipse;whiteSpace=wrap;html=1;aspect=fixed;fillColor=#f9f7ed;strokeColor=#36393d;" vertex="1" parent="218">
                    <mxGeometry x="5" y="9" width="40" height="40" as="geometry"/>
                </mxCell>
                <mxCell id="221" value="" style="whiteSpace=wrap;html=1;aspect=fixed;fillColor=#f9f7ed;strokeColor=#000000;" vertex="1" parent="218">
                    <mxGeometry x="10" y="14" width="30" height="30" as="geometry"/>
                </mxCell>
                <mxCell id="222" value="" style="group" vertex="1" connectable="0" parent="1">
                    <mxGeometry x="560" y="370" width="50" height="50" as="geometry"/>
                </mxCell>
                <mxCell id="223" value="" style="shape=offPageConnector;whiteSpace=wrap;html=1;strokeColor=#000000;fontSize=16;fontColor=#000000;fillColor=#808080;rotation=-180;" vertex="1" parent="222">
                    <mxGeometry width="50" height="50" as="geometry"/>
                </mxCell>
                <mxCell id="224" value="&lt;font color=&quot;#000000&quot;&gt;2&lt;/font&gt;" style="ellipse;whiteSpace=wrap;html=1;aspect=fixed;fillColor=#f9f7ed;strokeColor=#36393d;" vertex="1" parent="222">
                    <mxGeometry x="5" y="9" width="40" height="40" as="geometry"/>
                </mxCell>
                <mxCell id="225" value="" style="whiteSpace=wrap;html=1;aspect=fixed;fillColor=#f9f7ed;strokeColor=#000000;" vertex="1" parent="222">
                    <mxGeometry x="10" y="14" width="30" height="30" as="geometry"/>
                </mxCell>
                <mxCell id="226" value="" style="group" vertex="1" connectable="0" parent="1">
                    <mxGeometry x="620" y="330" width="50" height="50" as="geometry"/>
                </mxCell>
                <mxCell id="227" value="" style="shape=offPageConnector;whiteSpace=wrap;html=1;strokeColor=#000000;fontSize=16;fontColor=#000000;fillColor=#808080;rotation=-180;" vertex="1" parent="226">
                    <mxGeometry width="50" height="50" as="geometry"/>
                </mxCell>
                <mxCell id="228" value="&lt;font color=&quot;#000000&quot;&gt;2&lt;/font&gt;" style="ellipse;whiteSpace=wrap;html=1;aspect=fixed;fillColor=#f9f7ed;strokeColor=#36393d;" vertex="1" parent="226">
                    <mxGeometry x="5" y="9" width="40" height="40" as="geometry"/>
                </mxCell>
                <mxCell id="229" value="" style="whiteSpace=wrap;html=1;aspect=fixed;fillColor=#f9f7ed;strokeColor=#000000;" vertex="1" parent="226">
                    <mxGeometry x="10" y="14" width="30" height="30" as="geometry"/>
                </mxCell>
                <mxCell id="230" value="" style="group" vertex="1" connectable="0" parent="1">
                    <mxGeometry x="500" y="410" width="50" height="50" as="geometry"/>
                </mxCell>
                <mxCell id="231" value="" style="shape=offPageConnector;whiteSpace=wrap;html=1;strokeColor=#000000;fontSize=16;fontColor=#000000;fillColor=#808080;rotation=-180;" vertex="1" parent="230">
                    <mxGeometry width="50" height="50" as="geometry"/>
                </mxCell>
                <mxCell id="232" value="&lt;font color=&quot;#000000&quot;&gt;2&lt;/font&gt;" style="ellipse;whiteSpace=wrap;html=1;aspect=fixed;fillColor=#f9f7ed;strokeColor=#36393d;" vertex="1" parent="230">
                    <mxGeometry x="5" y="9" width="40" height="40" as="geometry"/>
                </mxCell>
                <mxCell id="233" value="" style="whiteSpace=wrap;html=1;aspect=fixed;fillColor=#f9f7ed;strokeColor=#000000;" vertex="1" parent="230">
                    <mxGeometry x="10" y="14" width="30" height="30" as="geometry"/>
                </mxCell>
                <mxCell id="237" value="" style="group" vertex="1" connectable="0" parent="1">
                    <mxGeometry x="850" y="230" width="50" height="50" as="geometry"/>
                </mxCell>
                <mxCell id="238" value="" style="shape=offPageConnector;whiteSpace=wrap;html=1;strokeColor=#000000;fontSize=16;fontColor=#000000;fillColor=#808080;rotation=-180;" vertex="1" parent="237">
                    <mxGeometry width="50" height="50" as="geometry"/>
                </mxCell>
                <mxCell id="239" value="&lt;font color=&quot;#000000&quot;&gt;2&lt;/font&gt;" style="ellipse;whiteSpace=wrap;html=1;aspect=fixed;fillColor=#f9f7ed;strokeColor=#36393d;" vertex="1" parent="237">
                    <mxGeometry x="5" y="9" width="40" height="40" as="geometry"/>
                </mxCell>
                <mxCell id="240" value="" style="whiteSpace=wrap;html=1;aspect=fixed;fillColor=#f9f7ed;strokeColor=#000000;" vertex="1" parent="237">
                    <mxGeometry x="10" y="14" width="30" height="30" as="geometry"/>
                </mxCell>
                <mxCell id="241" value="" style="group" vertex="1" connectable="0" parent="1">
                    <mxGeometry x="920" y="200" width="50" height="50" as="geometry"/>
                </mxCell>
                <mxCell id="242" value="" style="shape=offPageConnector;whiteSpace=wrap;html=1;strokeColor=#000000;fontSize=16;fontColor=#000000;fillColor=#808080;rotation=-180;" vertex="1" parent="241">
                    <mxGeometry width="50" height="50" as="geometry"/>
                </mxCell>
                <mxCell id="243" value="&lt;font color=&quot;#000000&quot;&gt;2&lt;/font&gt;" style="ellipse;whiteSpace=wrap;html=1;aspect=fixed;fillColor=#f9f7ed;strokeColor=#36393d;" vertex="1" parent="241">
                    <mxGeometry x="5" y="9" width="40" height="40" as="geometry"/>
                </mxCell>
                <mxCell id="244" value="" style="whiteSpace=wrap;html=1;aspect=fixed;fillColor=#f9f7ed;strokeColor=#000000;" vertex="1" parent="241">
                    <mxGeometry x="10" y="14" width="30" height="30" as="geometry"/>
                </mxCell>
                <mxCell id="245" value="" style="group" vertex="1" connectable="0" parent="1">
                    <mxGeometry x="990" y="170" width="50" height="50" as="geometry"/>
                </mxCell>
                <mxCell id="246" value="" style="shape=offPageConnector;whiteSpace=wrap;html=1;strokeColor=#000000;fontSize=16;fontColor=#000000;fillColor=#808080;rotation=-180;" vertex="1" parent="245">
                    <mxGeometry width="50" height="50" as="geometry"/>
                </mxCell>
                <mxCell id="247" value="&lt;font color=&quot;#000000&quot;&gt;2&lt;/font&gt;" style="ellipse;whiteSpace=wrap;html=1;aspect=fixed;fillColor=#f9f7ed;strokeColor=#36393d;" vertex="1" parent="245">
                    <mxGeometry x="5" y="9" width="40" height="40" as="geometry"/>
                </mxCell>
                <mxCell id="248" value="" style="whiteSpace=wrap;html=1;aspect=fixed;fillColor=#f9f7ed;strokeColor=#000000;" vertex="1" parent="245">
                    <mxGeometry x="10" y="14" width="30" height="30" as="geometry"/>
                </mxCell>
                <mxCell id="249" value="" style="group" vertex="1" connectable="0" parent="1">
                    <mxGeometry x="770" y="260" width="50" height="50" as="geometry"/>
                </mxCell>
                <mxCell id="250" value="" style="shape=offPageConnector;whiteSpace=wrap;html=1;strokeColor=#000000;fontSize=16;fontColor=#000000;fillColor=#808080;rotation=-180;" vertex="1" parent="249">
                    <mxGeometry width="50" height="50" as="geometry"/>
                </mxCell>
                <mxCell id="251" value="&lt;font color=&quot;#000000&quot;&gt;2&lt;/font&gt;" style="ellipse;whiteSpace=wrap;html=1;aspect=fixed;fillColor=#f9f7ed;strokeColor=#36393d;" vertex="1" parent="249">
                    <mxGeometry x="5" y="9" width="40" height="40" as="geometry"/>
                </mxCell>
                <mxCell id="252" value="" style="whiteSpace=wrap;html=1;aspect=fixed;fillColor=#f9f7ed;strokeColor=#000000;" vertex="1" parent="249">
                    <mxGeometry x="10" y="14" width="30" height="30" as="geometry"/>
                </mxCell>
                <mxCell id="253" value="" style="group" vertex="1" connectable="0" parent="1">
                    <mxGeometry x="1030" y="90" width="40" height="70" as="geometry"/>
                </mxCell>
                <mxCell id="254" value="" style="shape=offPageConnector;whiteSpace=wrap;html=1;strokeColor=#000000;fontSize=16;fontColor=#000000;fillColor=#808080;rotation=-180;" vertex="1" parent="253">
                    <mxGeometry width="40" height="70" as="geometry"/>
                </mxCell>
                <mxCell id="255" value="" style="whiteSpace=wrap;html=1;aspect=fixed;fillColor=#f9f7ed;strokeColor=#000000;" vertex="1" parent="253">
                    <mxGeometry x="5" y="34.5" width="30" height="30" as="geometry"/>
                </mxCell>
                <mxCell id="256" value="" style="group" vertex="1" connectable="0" parent="1">
                    <mxGeometry x="1070" y="90" width="40" height="70" as="geometry"/>
                </mxCell>
                <mxCell id="257" value="" style="shape=offPageConnector;whiteSpace=wrap;html=1;strokeColor=#000000;fontSize=16;fontColor=#000000;fillColor=#808080;rotation=-180;" vertex="1" parent="256">
                    <mxGeometry width="40" height="70" as="geometry"/>
                </mxCell>
                <mxCell id="258" value="" style="whiteSpace=wrap;html=1;aspect=fixed;fillColor=#ffcd28;strokeColor=#000000;gradientColor=#ffa500;" vertex="1" parent="256">
                    <mxGeometry x="5" y="34.5" width="30" height="30" as="geometry"/>
                </mxCell>
                <mxCell id="259" value="" style="group" vertex="1" connectable="0" parent="1">
                    <mxGeometry x="1110" y="90" width="40" height="70" as="geometry"/>
                </mxCell>
                <mxCell id="260" value="" style="shape=offPageConnector;whiteSpace=wrap;html=1;strokeColor=#000000;fontSize=16;fontColor=#000000;fillColor=#808080;rotation=-180;" vertex="1" parent="259">
                    <mxGeometry width="40" height="70" as="geometry"/>
                </mxCell>
                <mxCell id="261" value="" style="whiteSpace=wrap;html=1;aspect=fixed;" vertex="1" parent="259">
                    <mxGeometry x="5" y="34.5" width="30" height="30" as="geometry"/>
                </mxCell>
                <mxCell id="271" value="" style="group" vertex="1" connectable="0" parent="1">
                    <mxGeometry x="730" y="80" width="50" height="80" as="geometry"/>
                </mxCell>
                <mxCell id="272" value="" style="shape=offPageConnector;whiteSpace=wrap;html=1;strokeColor=#000000;fontSize=16;fontColor=#000000;fillColor=#808080;rotation=-180;" vertex="1" parent="271">
                    <mxGeometry width="50" height="80" as="geometry"/>
                </mxCell>
                <mxCell id="273" value="&lt;font color=&quot;#000000&quot;&gt;1&lt;/font&gt;" style="ellipse;whiteSpace=wrap;html=1;aspect=fixed;fillColor=#f9f7ed;strokeColor=#36393d;" vertex="1" parent="271">
                    <mxGeometry x="5" y="34.5" width="40" height="40" as="geometry"/>
                </mxCell>
                <mxCell id="274" value="" style="group" vertex="1" connectable="0" parent="1">
                    <mxGeometry x="810" y="110" width="50" height="50" as="geometry"/>
                </mxCell>
                <mxCell id="275" value="" style="shape=offPageConnector;whiteSpace=wrap;html=1;strokeColor=#000000;fontSize=16;fontColor=#000000;fillColor=#808080;rotation=-180;" vertex="1" parent="274">
                    <mxGeometry width="50" height="50" as="geometry"/>
                </mxCell>
                <mxCell id="276" value="&lt;font color=&quot;#000000&quot;&gt;2&lt;/font&gt;" style="ellipse;whiteSpace=wrap;html=1;aspect=fixed;fillColor=#f9f7ed;strokeColor=#36393d;" vertex="1" parent="274">
                    <mxGeometry x="5" y="9" width="40" height="40" as="geometry"/>
                </mxCell>
                <mxCell id="277" value="" style="whiteSpace=wrap;html=1;aspect=fixed;fillColor=#f9f7ed;strokeColor=#000000;" vertex="1" parent="274">
                    <mxGeometry x="10" y="14" width="30" height="30" as="geometry"/>
                </mxCell>
                <mxCell id="278" value="" style="group" vertex="1" connectable="0" parent="1">
                    <mxGeometry x="870" y="110" width="50" height="50" as="geometry"/>
                </mxCell>
                <mxCell id="279" value="" style="shape=offPageConnector;whiteSpace=wrap;html=1;strokeColor=#000000;fontSize=16;fontColor=#000000;fillColor=#808080;rotation=-180;" vertex="1" parent="278">
                    <mxGeometry width="50" height="50" as="geometry"/>
                </mxCell>
                <mxCell id="280" value="&lt;font color=&quot;#000000&quot;&gt;2&lt;/font&gt;" style="ellipse;whiteSpace=wrap;html=1;aspect=fixed;fillColor=#f9f7ed;strokeColor=#36393d;" vertex="1" parent="278">
                    <mxGeometry x="5" y="9" width="40" height="40" as="geometry"/>
                </mxCell>
                <mxCell id="281" value="" style="whiteSpace=wrap;html=1;aspect=fixed;fillColor=#f9f7ed;strokeColor=#000000;" vertex="1" parent="278">
                    <mxGeometry x="10" y="14" width="30" height="30" as="geometry"/>
                </mxCell>
                <mxCell id="282" value="" style="group" vertex="1" connectable="0" parent="1">
                    <mxGeometry x="930" y="110" width="50" height="50" as="geometry"/>
                </mxCell>
                <mxCell id="283" value="" style="shape=offPageConnector;whiteSpace=wrap;html=1;strokeColor=#000000;fontSize=16;fontColor=#000000;fillColor=#808080;rotation=-180;" vertex="1" parent="282">
                    <mxGeometry width="50" height="50" as="geometry"/>
                </mxCell>
                <mxCell id="284" value="&lt;font color=&quot;#000000&quot;&gt;2&lt;/font&gt;" style="ellipse;whiteSpace=wrap;html=1;aspect=fixed;fillColor=#f9f7ed;strokeColor=#36393d;" vertex="1" parent="282">
                    <mxGeometry x="5" y="9" width="40" height="40" as="geometry"/>
                </mxCell>
                <mxCell id="285" value="" style="whiteSpace=wrap;html=1;aspect=fixed;fillColor=#f9f7ed;strokeColor=#000000;" vertex="1" parent="282">
                    <mxGeometry x="10" y="14" width="30" height="30" as="geometry"/>
                </mxCell>
                <mxCell id="286" value="" style="group" vertex="1" connectable="0" parent="1">
                    <mxGeometry x="1190" y="110" width="50" height="50" as="geometry"/>
                </mxCell>
                <mxCell id="287" value="" style="shape=offPageConnector;whiteSpace=wrap;html=1;strokeColor=#000000;fontSize=16;fontColor=#000000;fillColor=#808080;rotation=-180;" vertex="1" parent="286">
                    <mxGeometry width="50" height="50" as="geometry"/>
                </mxCell>
                <mxCell id="288" value="&lt;font color=&quot;#000000&quot;&gt;2&lt;/font&gt;" style="ellipse;whiteSpace=wrap;html=1;aspect=fixed;fillColor=#f9f7ed;strokeColor=#36393d;" vertex="1" parent="286">
                    <mxGeometry x="5" y="9" width="40" height="40" as="geometry"/>
                </mxCell>
                <mxCell id="289" value="" style="whiteSpace=wrap;html=1;aspect=fixed;fillColor=#f9f7ed;strokeColor=#000000;" vertex="1" parent="286">
                    <mxGeometry x="10" y="14" width="30" height="30" as="geometry"/>
                </mxCell>
                <mxCell id="290" value="" style="group" vertex="1" connectable="0" parent="1">
                    <mxGeometry x="1250" y="110" width="50" height="50" as="geometry"/>
                </mxCell>
                <mxCell id="291" value="" style="shape=offPageConnector;whiteSpace=wrap;html=1;strokeColor=#000000;fontSize=16;fontColor=#000000;fillColor=#808080;rotation=-180;" vertex="1" parent="290">
                    <mxGeometry width="50" height="50" as="geometry"/>
                </mxCell>
                <mxCell id="292" value="&lt;font color=&quot;#000000&quot;&gt;2&lt;/font&gt;" style="ellipse;whiteSpace=wrap;html=1;aspect=fixed;fillColor=#f9f7ed;strokeColor=#36393d;" vertex="1" parent="290">
                    <mxGeometry x="5" y="9" width="40" height="40" as="geometry"/>
                </mxCell>
                <mxCell id="293" value="" style="whiteSpace=wrap;html=1;aspect=fixed;fillColor=#f9f7ed;strokeColor=#000000;" vertex="1" parent="290">
                    <mxGeometry x="10" y="14" width="30" height="30" as="geometry"/>
                </mxCell>
                <mxCell id="294" value="" style="group" vertex="1" connectable="0" parent="1">
                    <mxGeometry x="1310" y="110" width="50" height="50" as="geometry"/>
                </mxCell>
                <mxCell id="295" value="" style="shape=offPageConnector;whiteSpace=wrap;html=1;strokeColor=#000000;fontSize=16;fontColor=#000000;fillColor=#808080;rotation=-180;" vertex="1" parent="294">
                    <mxGeometry width="50" height="50" as="geometry"/>
                </mxCell>
                <mxCell id="296" value="&lt;font color=&quot;#000000&quot;&gt;2&lt;/font&gt;" style="ellipse;whiteSpace=wrap;html=1;aspect=fixed;fillColor=#f9f7ed;strokeColor=#36393d;" vertex="1" parent="294">
                    <mxGeometry x="5" y="9" width="40" height="40" as="geometry"/>
                </mxCell>
                <mxCell id="297" value="" style="whiteSpace=wrap;html=1;aspect=fixed;fillColor=#f9f7ed;strokeColor=#000000;" vertex="1" parent="294">
                    <mxGeometry x="10" y="14" width="30" height="30" as="geometry"/>
                </mxCell>
                <mxCell id="298" value="" style="group" vertex="1" connectable="0" parent="1">
                    <mxGeometry x="1410" y="90" width="40" height="70" as="geometry"/>
                </mxCell>
                <mxCell id="299" value="" style="shape=offPageConnector;whiteSpace=wrap;html=1;strokeColor=#000000;fontSize=16;fontColor=#000000;fillColor=#808080;rotation=-180;" vertex="1" parent="298">
                    <mxGeometry width="40" height="70" as="geometry"/>
                </mxCell>
                <mxCell id="300" value="&lt;font color=&quot;#000000&quot;&gt;1&lt;/font&gt;" style="whiteSpace=wrap;html=1;aspect=fixed;fillColor=#f9f7ed;strokeColor=#000000;" vertex="1" parent="298">
                    <mxGeometry x="5" y="34.5" width="30" height="30" as="geometry"/>
                </mxCell>
                <mxCell id="301" value="" style="group" vertex="1" connectable="0" parent="1">
                    <mxGeometry x="1450" y="90" width="40" height="70" as="geometry"/>
                </mxCell>
                <mxCell id="302" value="" style="shape=offPageConnector;whiteSpace=wrap;html=1;strokeColor=#000000;fontSize=16;fontColor=#000000;fillColor=#808080;rotation=-180;" vertex="1" parent="301">
                    <mxGeometry width="40" height="70" as="geometry"/>
                </mxCell>
                <mxCell id="303" value="" style="whiteSpace=wrap;html=1;aspect=fixed;fillColor=#e6d0de;strokeColor=#000000;gradientColor=#d5739d;" vertex="1" parent="301">
                    <mxGeometry x="5" y="34.5" width="30" height="30" as="geometry"/>
                </mxCell>
                <mxCell id="304" value="" style="group;strokeColor=#000000;" vertex="1" connectable="0" parent="1">
                    <mxGeometry x="140" y="1100" width="40" height="70" as="geometry"/>
                </mxCell>
                <mxCell id="305" value="" style="shape=offPageConnector;whiteSpace=wrap;html=1;strokeColor=#000000;fontSize=16;fontColor=#000000;fillColor=#808080;rotation=-180;" vertex="1" parent="304">
                    <mxGeometry width="40" height="70" as="geometry"/>
                </mxCell>
                <mxCell id="306" value="" style="whiteSpace=wrap;html=1;aspect=fixed;fillColor=#e6d0de;strokeColor=#000000;gradientColor=#d5739d;" vertex="1" parent="304">
                    <mxGeometry x="5" y="34.5" width="30" height="30" as="geometry"/>
                </mxCell>
                <mxCell id="307" value="" style="group;strokeColor=#000000;fontSize=16;fontColor=#000000;fillColor=none;" vertex="1" connectable="0" parent="1">
                    <mxGeometry x="100" y="1100" width="40" height="70" as="geometry"/>
                </mxCell>
                <mxCell id="308" value="" style="shape=offPageConnector;whiteSpace=wrap;html=1;strokeColor=#000000;fontSize=16;fontColor=#000000;fillColor=#808080;rotation=-180;" vertex="1" parent="307">
                    <mxGeometry width="40" height="70" as="geometry"/>
                </mxCell>
                <mxCell id="309" value="1" style="whiteSpace=wrap;html=1;aspect=fixed;fillColor=#f9f7ed;strokeColor=#000000;fontSize=16;fontColor=#000000;" vertex="1" parent="307">
                    <mxGeometry x="5" y="34.5" width="30" height="30" as="geometry"/>
                </mxCell>
                <mxCell id="328" value="" style="group" vertex="1" connectable="0" parent="1">
                    <mxGeometry x="200" y="1120" width="50" height="50" as="geometry"/>
                </mxCell>
                <mxCell id="329" value="" style="shape=offPageConnector;whiteSpace=wrap;html=1;strokeColor=#000000;fontSize=16;fontColor=#000000;fillColor=#808080;rotation=-180;" vertex="1" parent="328">
                    <mxGeometry width="50" height="50" as="geometry"/>
                </mxCell>
                <mxCell id="330" value="&lt;font color=&quot;#000000&quot;&gt;2&lt;/font&gt;" style="ellipse;whiteSpace=wrap;html=1;aspect=fixed;fillColor=#f9f7ed;strokeColor=#36393d;" vertex="1" parent="328">
                    <mxGeometry x="5" y="9" width="40" height="40" as="geometry"/>
                </mxCell>
                <mxCell id="331" value="" style="whiteSpace=wrap;html=1;aspect=fixed;fillColor=#f9f7ed;strokeColor=#000000;" vertex="1" parent="328">
                    <mxGeometry x="10" y="14" width="30" height="30" as="geometry"/>
                </mxCell>
                <mxCell id="332" value="" style="group" vertex="1" connectable="0" parent="1">
                    <mxGeometry x="260" y="1120" width="50" height="50" as="geometry"/>
                </mxCell>
                <mxCell id="333" value="" style="shape=offPageConnector;whiteSpace=wrap;html=1;strokeColor=#000000;fontSize=16;fontColor=#000000;fillColor=#808080;rotation=-180;" vertex="1" parent="332">
                    <mxGeometry width="50" height="50" as="geometry"/>
                </mxCell>
                <mxCell id="334" value="&lt;font color=&quot;#000000&quot;&gt;2&lt;/font&gt;" style="ellipse;whiteSpace=wrap;html=1;aspect=fixed;fillColor=#f9f7ed;strokeColor=#36393d;" vertex="1" parent="332">
                    <mxGeometry x="5" y="9" width="40" height="40" as="geometry"/>
                </mxCell>
                <mxCell id="335" value="" style="whiteSpace=wrap;html=1;aspect=fixed;fillColor=#f9f7ed;strokeColor=#000000;" vertex="1" parent="332">
                    <mxGeometry x="10" y="14" width="30" height="30" as="geometry"/>
                </mxCell>
                <mxCell id="336" value="" style="group" vertex="1" connectable="0" parent="1">
                    <mxGeometry x="320" y="1120" width="50" height="50" as="geometry"/>
                </mxCell>
                <mxCell id="337" value="" style="shape=offPageConnector;whiteSpace=wrap;html=1;strokeColor=#000000;fontSize=16;fontColor=#000000;fillColor=#808080;rotation=-180;" vertex="1" parent="336">
                    <mxGeometry width="50" height="50" as="geometry"/>
                </mxCell>
                <mxCell id="338" value="&lt;font color=&quot;#000000&quot;&gt;2&lt;/font&gt;" style="ellipse;whiteSpace=wrap;html=1;aspect=fixed;fillColor=#f9f7ed;strokeColor=#36393d;" vertex="1" parent="336">
                    <mxGeometry x="5" y="9" width="40" height="40" as="geometry"/>
                </mxCell>
                <mxCell id="339" value="" style="whiteSpace=wrap;html=1;aspect=fixed;fillColor=#f9f7ed;strokeColor=#000000;" vertex="1" parent="336">
                    <mxGeometry x="10" y="14" width="30" height="30" as="geometry"/>
                </mxCell>
                <mxCell id="340" value="" style="group" vertex="1" connectable="0" parent="1">
                    <mxGeometry x="380" y="1120" width="50" height="50" as="geometry"/>
                </mxCell>
                <mxCell id="341" value="" style="shape=offPageConnector;whiteSpace=wrap;html=1;strokeColor=#000000;fontSize=16;fontColor=#000000;fillColor=#808080;rotation=-180;" vertex="1" parent="340">
                    <mxGeometry width="50" height="50" as="geometry"/>
                </mxCell>
                <mxCell id="342" value="&lt;font color=&quot;#000000&quot;&gt;2&lt;/font&gt;" style="ellipse;whiteSpace=wrap;html=1;aspect=fixed;fillColor=#f9f7ed;strokeColor=#36393d;" vertex="1" parent="340">
                    <mxGeometry x="5" y="9" width="40" height="40" as="geometry"/>
                </mxCell>
                <mxCell id="343" value="" style="whiteSpace=wrap;html=1;aspect=fixed;fillColor=#f9f7ed;strokeColor=#000000;" vertex="1" parent="340">
                    <mxGeometry x="10" y="14" width="30" height="30" as="geometry"/>
                </mxCell>
                <mxCell id="344" value="" style="group" vertex="1" connectable="0" parent="1">
                    <mxGeometry x="480" y="1100" width="40" height="70" as="geometry"/>
                </mxCell>
                <mxCell id="345" value="" style="shape=offPageConnector;whiteSpace=wrap;html=1;strokeColor=#000000;fontSize=16;fontColor=#000000;fillColor=#808080;rotation=-180;" vertex="1" parent="344">
                    <mxGeometry width="40" height="70" as="geometry"/>
                </mxCell>
                <mxCell id="346" value="" style="whiteSpace=wrap;html=1;aspect=fixed;fillColor=#e6d0de;strokeColor=#000000;gradientColor=#d5739d;" vertex="1" parent="344">
                    <mxGeometry x="5" y="34.5" width="30" height="30" as="geometry"/>
                </mxCell>
                <mxCell id="347" value="" style="group;strokeColor=#000000;fontSize=16;fontColor=#000000;fillColor=none;" vertex="1" connectable="0" parent="1">
                    <mxGeometry x="440" y="1100" width="40" height="70" as="geometry"/>
                </mxCell>
                <mxCell id="348" value="" style="shape=offPageConnector;whiteSpace=wrap;html=1;strokeColor=#000000;fontSize=16;fontColor=#000000;fillColor=#808080;rotation=-180;" vertex="1" parent="347">
                    <mxGeometry width="40" height="70" as="geometry"/>
                </mxCell>
                <mxCell id="349" value="&lt;font color=&quot;#000000&quot;&gt;1&lt;/font&gt;" style="whiteSpace=wrap;html=1;aspect=fixed;fillColor=#ffcd28;strokeColor=#000000;fontSize=16;gradientColor=#ffa500;" vertex="1" parent="347">
                    <mxGeometry x="5" y="34.5" width="30" height="30" as="geometry"/>
                </mxCell>
                <mxCell id="350" value="" style="group" vertex="1" connectable="0" parent="1">
                    <mxGeometry x="310" y="880" width="50" height="80" as="geometry"/>
                </mxCell>
                <mxCell id="351" value="" style="shape=offPageConnector;whiteSpace=wrap;html=1;strokeColor=#000000;fontSize=16;fontColor=#000000;fillColor=#808080;rotation=-180;" vertex="1" parent="350">
                    <mxGeometry width="50" height="80" as="geometry"/>
                </mxCell>
                <mxCell id="352" value="" style="ellipse;whiteSpace=wrap;html=1;aspect=fixed;fillColor=#f9f7ed;strokeColor=#36393d;" vertex="1" parent="350">
                    <mxGeometry x="5" y="34.5" width="40" height="40" as="geometry"/>
                </mxCell>
                <mxCell id="353" value="" style="shape=offPageConnector;whiteSpace=wrap;html=1;strokeColor=#000000;fontSize=16;fontColor=#000000;fillColor=#808080;rotation=-180;container=0;" vertex="1" parent="1">
                    <mxGeometry x="360" y="890" width="40" height="70" as="geometry"/>
                </mxCell>
                <mxCell id="354" value="" style="whiteSpace=wrap;html=1;aspect=fixed;fillColor=#ffcd28;strokeColor=#000000;container=0;gradientColor=#ffa500;" vertex="1" parent="1">
                    <mxGeometry x="365" y="924.5" width="30" height="30" as="geometry"/>
                </mxCell>
                <mxCell id="355" value="" style="group" vertex="1" connectable="0" parent="1">
                    <mxGeometry x="420" y="874.5" width="50" height="50" as="geometry"/>
                </mxCell>
                <mxCell id="356" value="" style="shape=offPageConnector;whiteSpace=wrap;html=1;strokeColor=#000000;fontSize=16;fontColor=#000000;fillColor=#808080;rotation=-180;" vertex="1" parent="355">
                    <mxGeometry width="50" height="50" as="geometry"/>
                </mxCell>
                <mxCell id="357" value="&lt;font color=&quot;#000000&quot;&gt;2&lt;/font&gt;" style="ellipse;whiteSpace=wrap;html=1;aspect=fixed;fillColor=#f9f7ed;strokeColor=#36393d;" vertex="1" parent="355">
                    <mxGeometry x="5" y="9" width="40" height="40" as="geometry"/>
                </mxCell>
                <mxCell id="358" value="" style="whiteSpace=wrap;html=1;aspect=fixed;fillColor=#f9f7ed;strokeColor=#000000;" vertex="1" parent="355">
                    <mxGeometry x="10" y="14" width="30" height="30" as="geometry"/>
                </mxCell>
                <mxCell id="359" value="" style="group" vertex="1" connectable="0" parent="1">
                    <mxGeometry x="485" y="860" width="50" height="50" as="geometry"/>
                </mxCell>
                <mxCell id="360" value="" style="shape=offPageConnector;whiteSpace=wrap;html=1;strokeColor=#000000;fontSize=16;fontColor=#000000;fillColor=#808080;rotation=-180;" vertex="1" parent="359">
                    <mxGeometry width="50" height="50" as="geometry"/>
                </mxCell>
                <mxCell id="361" value="&lt;font color=&quot;#000000&quot;&gt;2&lt;/font&gt;" style="ellipse;whiteSpace=wrap;html=1;aspect=fixed;fillColor=#f9f7ed;strokeColor=#36393d;" vertex="1" parent="359">
                    <mxGeometry x="5" y="9" width="40" height="40" as="geometry"/>
                </mxCell>
                <mxCell id="362" value="" style="whiteSpace=wrap;html=1;aspect=fixed;fillColor=#f9f7ed;strokeColor=#000000;" vertex="1" parent="359">
                    <mxGeometry x="10" y="14" width="30" height="30" as="geometry"/>
                </mxCell>
                <mxCell id="363" value="" style="group" vertex="1" connectable="0" parent="1">
                    <mxGeometry x="550" y="860" width="50" height="50" as="geometry"/>
                </mxCell>
                <mxCell id="364" value="" style="shape=offPageConnector;whiteSpace=wrap;html=1;strokeColor=#000000;fontSize=16;fontColor=#000000;fillColor=#808080;rotation=-180;" vertex="1" parent="363">
                    <mxGeometry width="50" height="50" as="geometry"/>
                </mxCell>
                <mxCell id="365" value="&lt;font color=&quot;#000000&quot;&gt;2&lt;/font&gt;" style="ellipse;whiteSpace=wrap;html=1;aspect=fixed;fillColor=#f9f7ed;strokeColor=#36393d;" vertex="1" parent="363">
                    <mxGeometry x="5" y="9" width="40" height="40" as="geometry"/>
                </mxCell>
                <mxCell id="366" value="" style="whiteSpace=wrap;html=1;aspect=fixed;fillColor=#f9f7ed;strokeColor=#000000;" vertex="1" parent="363">
                    <mxGeometry x="10" y="14" width="30" height="30" as="geometry"/>
                </mxCell>
                <mxCell id="367" value="" style="group" vertex="1" connectable="0" parent="1">
                    <mxGeometry x="580" y="980" width="50" height="50" as="geometry"/>
                </mxCell>
                <mxCell id="368" value="" style="shape=offPageConnector;whiteSpace=wrap;html=1;strokeColor=#000000;fontSize=16;fontColor=#000000;fillColor=#808080;rotation=-180;" vertex="1" parent="367">
                    <mxGeometry width="50" height="50" as="geometry"/>
                </mxCell>
                <mxCell id="369" value="&lt;font color=&quot;#000000&quot;&gt;2&lt;/font&gt;" style="ellipse;whiteSpace=wrap;html=1;aspect=fixed;fillColor=#f9f7ed;strokeColor=#36393d;" vertex="1" parent="367">
                    <mxGeometry x="5" y="9" width="40" height="40" as="geometry"/>
                </mxCell>
                <mxCell id="370" value="" style="whiteSpace=wrap;html=1;aspect=fixed;fillColor=#f9f7ed;strokeColor=#000000;" vertex="1" parent="367">
                    <mxGeometry x="10" y="14" width="30" height="30" as="geometry"/>
                </mxCell>
                <mxCell id="371" value="" style="group" vertex="1" connectable="0" parent="1">
                    <mxGeometry x="630" y="920" width="50" height="50" as="geometry"/>
                </mxCell>
                <mxCell id="372" value="" style="shape=offPageConnector;whiteSpace=wrap;html=1;strokeColor=#000000;fontSize=16;fontColor=#000000;fillColor=#808080;rotation=-180;" vertex="1" parent="371">
                    <mxGeometry width="50" height="50" as="geometry"/>
                </mxCell>
                <mxCell id="373" value="&lt;font color=&quot;#000000&quot;&gt;2&lt;/font&gt;" style="ellipse;whiteSpace=wrap;html=1;aspect=fixed;fillColor=#f9f7ed;strokeColor=#36393d;" vertex="1" parent="371">
                    <mxGeometry x="5" y="9" width="40" height="40" as="geometry"/>
                </mxCell>
                <mxCell id="374" value="" style="whiteSpace=wrap;html=1;aspect=fixed;fillColor=#f9f7ed;strokeColor=#000000;" vertex="1" parent="371">
                    <mxGeometry x="10" y="14" width="30" height="30" as="geometry"/>
                </mxCell>
                <mxCell id="375" value="" style="group" vertex="1" connectable="0" parent="1">
                    <mxGeometry x="530" y="1030" width="50" height="50" as="geometry"/>
                </mxCell>
                <mxCell id="376" value="" style="shape=offPageConnector;whiteSpace=wrap;html=1;strokeColor=#000000;fontSize=16;fontColor=#000000;fillColor=#808080;rotation=-180;" vertex="1" parent="375">
                    <mxGeometry width="50" height="50" as="geometry"/>
                </mxCell>
                <mxCell id="377" value="&lt;font color=&quot;#000000&quot;&gt;2&lt;/font&gt;" style="ellipse;whiteSpace=wrap;html=1;aspect=fixed;fillColor=#f9f7ed;strokeColor=#36393d;" vertex="1" parent="375">
                    <mxGeometry x="5" y="9" width="40" height="40" as="geometry"/>
                </mxCell>
                <mxCell id="378" value="" style="whiteSpace=wrap;html=1;aspect=fixed;fillColor=#f9f7ed;strokeColor=#000000;" vertex="1" parent="375">
                    <mxGeometry x="10" y="14" width="30" height="30" as="geometry"/>
                </mxCell>
                <mxCell id="379" value="" style="group" vertex="1" connectable="0" parent="1">
                    <mxGeometry x="90" y="90" width="40" height="70" as="geometry"/>
                </mxCell>
                <mxCell id="380" value="" style="shape=offPageConnector;whiteSpace=wrap;html=1;strokeColor=#000000;fontSize=16;fontColor=#000000;fillColor=#808080;rotation=-180;" vertex="1" parent="379">
                    <mxGeometry width="40" height="70" as="geometry"/>
                </mxCell>
                <mxCell id="381" value="&lt;font color=&quot;#000000&quot;&gt;1&lt;/font&gt;" style="whiteSpace=wrap;html=1;aspect=fixed;fillColor=#f9f7ed;strokeColor=#000000;" vertex="1" parent="379">
                    <mxGeometry x="5" y="34.5" width="30" height="30" as="geometry"/>
                </mxCell>
                <mxCell id="382" value="" style="shape=offPageConnector;whiteSpace=wrap;html=1;strokeColor=#000000;fontSize=16;fontColor=#000000;fillColor=#808080;rotation=-180;" vertex="1" parent="1">
                    <mxGeometry x="130" y="80" width="50" height="80" as="geometry"/>
                </mxCell>
                <mxCell id="383" value="" style="ellipse;whiteSpace=wrap;html=1;aspect=fixed;fillColor=#ffcd28;strokeColor=#000000;gradientColor=#ffa500;" vertex="1" parent="1">
                    <mxGeometry x="135" y="114.5" width="40" height="40" as="geometry"/>
                </mxCell>
                <mxCell id="384" value="" style="group" vertex="1" connectable="0" parent="1">
                    <mxGeometry x="230" y="670" width="50" height="50" as="geometry"/>
                </mxCell>
                <mxCell id="385" value="" style="shape=offPageConnector;whiteSpace=wrap;html=1;strokeColor=#000000;fontSize=16;fontColor=#000000;fillColor=#808080;rotation=-180;" vertex="1" parent="384">
                    <mxGeometry width="50" height="50" as="geometry"/>
                </mxCell>
                <mxCell id="386" value="&lt;font color=&quot;#000000&quot;&gt;2&lt;/font&gt;" style="ellipse;whiteSpace=wrap;html=1;aspect=fixed;fillColor=#f9f7ed;strokeColor=#36393d;" vertex="1" parent="384">
                    <mxGeometry x="5" y="9" width="40" height="40" as="geometry"/>
                </mxCell>
                <mxCell id="387" value="" style="whiteSpace=wrap;html=1;aspect=fixed;fillColor=#f9f7ed;strokeColor=#000000;" vertex="1" parent="384">
                    <mxGeometry x="10" y="14" width="30" height="30" as="geometry"/>
                </mxCell>
                <mxCell id="388" value="" style="group" vertex="1" connectable="0" parent="1">
                    <mxGeometry x="290" y="670" width="50" height="50" as="geometry"/>
                </mxCell>
                <mxCell id="389" value="" style="shape=offPageConnector;whiteSpace=wrap;html=1;strokeColor=#000000;fontSize=16;fontColor=#000000;fillColor=#808080;rotation=-180;" vertex="1" parent="388">
                    <mxGeometry width="50" height="50" as="geometry"/>
                </mxCell>
                <mxCell id="390" value="&lt;font color=&quot;#000000&quot;&gt;2&lt;/font&gt;" style="ellipse;whiteSpace=wrap;html=1;aspect=fixed;fillColor=#f9f7ed;strokeColor=#36393d;" vertex="1" parent="388">
                    <mxGeometry x="5" y="9" width="40" height="40" as="geometry"/>
                </mxCell>
                <mxCell id="391" value="" style="whiteSpace=wrap;html=1;aspect=fixed;fillColor=#f9f7ed;strokeColor=#000000;" vertex="1" parent="388">
                    <mxGeometry x="10" y="14" width="30" height="30" as="geometry"/>
                </mxCell>
                <mxCell id="392" value="" style="group" vertex="1" connectable="0" parent="1">
                    <mxGeometry x="350" y="670" width="50" height="50" as="geometry"/>
                </mxCell>
                <mxCell id="393" value="" style="shape=offPageConnector;whiteSpace=wrap;html=1;strokeColor=#000000;fontSize=16;fontColor=#000000;fillColor=#808080;rotation=-180;" vertex="1" parent="392">
                    <mxGeometry width="50" height="50" as="geometry"/>
                </mxCell>
                <mxCell id="394" value="&lt;font color=&quot;#000000&quot;&gt;2&lt;/font&gt;" style="ellipse;whiteSpace=wrap;html=1;aspect=fixed;fillColor=#f9f7ed;strokeColor=#36393d;" vertex="1" parent="392">
                    <mxGeometry x="5" y="9" width="40" height="40" as="geometry"/>
                </mxCell>
                <mxCell id="395" value="" style="whiteSpace=wrap;html=1;aspect=fixed;fillColor=#f9f7ed;strokeColor=#000000;" vertex="1" parent="392">
                    <mxGeometry x="10" y="14" width="30" height="30" as="geometry"/>
                </mxCell>
                <mxCell id="396" value="" style="group" vertex="1" connectable="0" parent="1">
                    <mxGeometry x="415" y="640" width="50" height="80" as="geometry"/>
                </mxCell>
                <mxCell id="397" value="" style="shape=offPageConnector;whiteSpace=wrap;html=1;strokeColor=#000000;fontSize=16;fontColor=#000000;fillColor=#808080;rotation=-180;" vertex="1" parent="396">
                    <mxGeometry width="50" height="80" as="geometry"/>
                </mxCell>
                <mxCell id="398" value="" style="ellipse;whiteSpace=wrap;html=1;aspect=fixed;fillColor=#f9f7ed;strokeColor=#36393d;" vertex="1" parent="396">
                    <mxGeometry x="5" y="34.5" width="40" height="40" as="geometry"/>
                </mxCell>
                <mxCell id="399" value="" style="shape=offPageConnector;whiteSpace=wrap;html=1;strokeColor=#000000;fontSize=16;fontColor=#000000;fillColor=#808080;rotation=-180;container=0;" vertex="1" parent="1">
                    <mxGeometry x="465" y="650" width="40" height="70" as="geometry"/>
                </mxCell>
                <mxCell id="400" value="" style="whiteSpace=wrap;html=1;aspect=fixed;fillColor=#ffcd28;strokeColor=#000000;container=0;gradientColor=#ffa500;" vertex="1" parent="1">
                    <mxGeometry x="470" y="684.5" width="30" height="30" as="geometry"/>
                </mxCell>
                <mxCell id="401" value="" style="group" vertex="1" connectable="0" parent="1">
                    <mxGeometry x="520" y="670" width="50" height="50" as="geometry"/>
                </mxCell>
                <mxCell id="402" value="" style="shape=offPageConnector;whiteSpace=wrap;html=1;strokeColor=#000000;fontSize=16;fontColor=#000000;fillColor=#808080;rotation=-180;" vertex="1" parent="401">
                    <mxGeometry width="50" height="50" as="geometry"/>
                </mxCell>
                <mxCell id="403" value="&lt;font color=&quot;#000000&quot;&gt;2&lt;/font&gt;" style="ellipse;whiteSpace=wrap;html=1;aspect=fixed;fillColor=#f9f7ed;strokeColor=#36393d;" vertex="1" parent="401">
                    <mxGeometry x="5" y="9" width="40" height="40" as="geometry"/>
                </mxCell>
                <mxCell id="404" value="" style="whiteSpace=wrap;html=1;aspect=fixed;fillColor=#f9f7ed;strokeColor=#000000;" vertex="1" parent="401">
                    <mxGeometry x="10" y="14" width="30" height="30" as="geometry"/>
                </mxCell>
                <mxCell id="405" value="" style="group" vertex="1" connectable="0" parent="1">
                    <mxGeometry x="580" y="640" width="50" height="50" as="geometry"/>
                </mxCell>
                <mxCell id="406" value="" style="shape=offPageConnector;whiteSpace=wrap;html=1;strokeColor=#000000;fontSize=16;fontColor=#000000;fillColor=#808080;rotation=-180;" vertex="1" parent="405">
                    <mxGeometry width="50" height="50" as="geometry"/>
                </mxCell>
                <mxCell id="407" value="&lt;font color=&quot;#000000&quot;&gt;2&lt;/font&gt;" style="ellipse;whiteSpace=wrap;html=1;aspect=fixed;fillColor=#f9f7ed;strokeColor=#36393d;" vertex="1" parent="405">
                    <mxGeometry x="5" y="9" width="40" height="40" as="geometry"/>
                </mxCell>
                <mxCell id="408" value="" style="whiteSpace=wrap;html=1;aspect=fixed;fillColor=#f9f7ed;strokeColor=#000000;" vertex="1" parent="405">
                    <mxGeometry x="10" y="14" width="30" height="30" as="geometry"/>
                </mxCell>
                <mxCell id="409" value="" style="group" vertex="1" connectable="0" parent="1">
                    <mxGeometry x="640" y="624.5" width="50" height="50" as="geometry"/>
                </mxCell>
                <mxCell id="410" value="" style="shape=offPageConnector;whiteSpace=wrap;html=1;strokeColor=#000000;fontSize=16;fontColor=#000000;fillColor=#808080;rotation=-180;" vertex="1" parent="409">
                    <mxGeometry width="50" height="50" as="geometry"/>
                </mxCell>
                <mxCell id="411" value="&lt;font color=&quot;#000000&quot;&gt;2&lt;/font&gt;" style="ellipse;whiteSpace=wrap;html=1;aspect=fixed;fillColor=#f9f7ed;strokeColor=#36393d;" vertex="1" parent="409">
                    <mxGeometry x="5" y="9" width="40" height="40" as="geometry"/>
                </mxCell>
                <mxCell id="412" value="" style="whiteSpace=wrap;html=1;aspect=fixed;fillColor=#f9f7ed;strokeColor=#000000;" vertex="1" parent="409">
                    <mxGeometry x="10" y="14" width="30" height="30" as="geometry"/>
                </mxCell>
                <mxCell id="413" value="" style="group" vertex="1" connectable="0" parent="1">
                    <mxGeometry x="710" y="600" width="40" height="70" as="geometry"/>
                </mxCell>
                <mxCell id="414" value="" style="shape=offPageConnector;whiteSpace=wrap;html=1;strokeColor=#000000;fontSize=16;fontColor=#000000;fillColor=#808080;rotation=-180;" vertex="1" parent="413">
                    <mxGeometry width="40" height="70" as="geometry"/>
                </mxCell>
                <mxCell id="415" value="" style="whiteSpace=wrap;html=1;aspect=fixed;fillColor=#f9f7ed;strokeColor=#000000;" vertex="1" parent="413">
                    <mxGeometry x="5" y="34.5" width="30" height="30" as="geometry"/>
                </mxCell>
                <mxCell id="416" value="" style="group" vertex="1" connectable="0" parent="1">
                    <mxGeometry x="750" y="600" width="40" height="70" as="geometry"/>
                </mxCell>
                <mxCell id="417" value="" style="shape=offPageConnector;whiteSpace=wrap;html=1;strokeColor=#000000;fontSize=16;fontColor=#000000;fillColor=#808080;rotation=-180;" vertex="1" parent="416">
                    <mxGeometry width="40" height="70" as="geometry"/>
                </mxCell>
                <mxCell id="418" value="" style="whiteSpace=wrap;html=1;aspect=fixed;fillColor=#ffcd28;strokeColor=#000000;gradientColor=#ffa500;" vertex="1" parent="416">
                    <mxGeometry x="5" y="34.5" width="30" height="30" as="geometry"/>
                </mxCell>
                <mxCell id="419" value="" style="group" vertex="1" connectable="0" parent="1">
                    <mxGeometry x="790" y="600" width="40" height="70" as="geometry"/>
                </mxCell>
                <mxCell id="420" value="" style="shape=offPageConnector;whiteSpace=wrap;html=1;strokeColor=#000000;fontSize=16;fontColor=#000000;fillColor=#808080;rotation=-180;" vertex="1" parent="419">
                    <mxGeometry width="40" height="70" as="geometry"/>
                </mxCell>
                <mxCell id="421" value="" style="whiteSpace=wrap;html=1;aspect=fixed;fillColor=#e6d0de;strokeColor=#000000;gradientColor=#d5739d;" vertex="1" parent="419">
                    <mxGeometry x="5" y="34.5" width="30" height="30" as="geometry"/>
                </mxCell>
                <mxCell id="423" value="" style="group" vertex="1" connectable="0" parent="1">
                    <mxGeometry x="830" y="600" width="40" height="70" as="geometry"/>
                </mxCell>
                <mxCell id="424" value="" style="shape=offPageConnector;whiteSpace=wrap;html=1;strokeColor=#000000;fontSize=16;fontColor=#000000;fillColor=#808080;rotation=-180;" vertex="1" parent="423">
                    <mxGeometry width="40" height="70" as="geometry"/>
                </mxCell>
                <mxCell id="425" value="" style="whiteSpace=wrap;html=1;aspect=fixed;" vertex="1" parent="423">
                    <mxGeometry x="5" y="34.5" width="30" height="30" as="geometry"/>
                </mxCell>
                <mxCell id="426" value="" style="group" vertex="1" connectable="0" parent="1">
                    <mxGeometry x="725" y="520" width="50" height="50" as="geometry"/>
                </mxCell>
                <mxCell id="427" value="" style="shape=offPageConnector;whiteSpace=wrap;html=1;strokeColor=#000000;fontSize=16;fontColor=#000000;fillColor=#808080;rotation=-180;" vertex="1" parent="426">
                    <mxGeometry width="50" height="50" as="geometry"/>
                </mxCell>
                <mxCell id="428" value="&lt;font color=&quot;#000000&quot;&gt;2&lt;/font&gt;" style="ellipse;whiteSpace=wrap;html=1;aspect=fixed;fillColor=#f9f7ed;strokeColor=#36393d;" vertex="1" parent="426">
                    <mxGeometry x="5" y="9" width="40" height="40" as="geometry"/>
                </mxCell>
                <mxCell id="429" value="" style="whiteSpace=wrap;html=1;aspect=fixed;fillColor=#f9f7ed;strokeColor=#000000;" vertex="1" parent="426">
                    <mxGeometry x="10" y="14" width="30" height="30" as="geometry"/>
                </mxCell>
                <mxCell id="430" value="" style="group" vertex="1" connectable="0" parent="1">
                    <mxGeometry x="700" y="450" width="50" height="50" as="geometry"/>
                </mxCell>
                <mxCell id="431" value="" style="shape=offPageConnector;whiteSpace=wrap;html=1;strokeColor=#000000;fontSize=16;fontColor=#000000;fillColor=#808080;rotation=-180;" vertex="1" parent="430">
                    <mxGeometry width="50" height="50" as="geometry"/>
                </mxCell>
                <mxCell id="432" value="&lt;font color=&quot;#000000&quot;&gt;2&lt;/font&gt;" style="ellipse;whiteSpace=wrap;html=1;aspect=fixed;fillColor=#f9f7ed;strokeColor=#36393d;" vertex="1" parent="430">
                    <mxGeometry x="5" y="9" width="40" height="40" as="geometry"/>
                </mxCell>
                <mxCell id="433" value="" style="whiteSpace=wrap;html=1;aspect=fixed;fillColor=#f9f7ed;strokeColor=#000000;" vertex="1" parent="430">
                    <mxGeometry x="10" y="14" width="30" height="30" as="geometry"/>
                </mxCell>
                <mxCell id="434" value="" style="group" vertex="1" connectable="0" parent="1">
                    <mxGeometry x="705" y="380" width="50" height="50" as="geometry"/>
                </mxCell>
                <mxCell id="435" value="" style="shape=offPageConnector;whiteSpace=wrap;html=1;strokeColor=#000000;fontSize=16;fontColor=#000000;fillColor=#808080;rotation=-180;" vertex="1" parent="434">
                    <mxGeometry width="50" height="50" as="geometry"/>
                </mxCell>
                <mxCell id="436" value="&lt;font color=&quot;#000000&quot;&gt;2&lt;/font&gt;" style="ellipse;whiteSpace=wrap;html=1;aspect=fixed;fillColor=#f9f7ed;strokeColor=#36393d;" vertex="1" parent="434">
                    <mxGeometry x="5" y="9" width="40" height="40" as="geometry"/>
                </mxCell>
                <mxCell id="437" value="" style="whiteSpace=wrap;html=1;aspect=fixed;fillColor=#f9f7ed;strokeColor=#000000;" vertex="1" parent="434">
                    <mxGeometry x="10" y="14" width="30" height="30" as="geometry"/>
                </mxCell>
                <mxCell id="438" value="" style="group" vertex="1" connectable="0" parent="1">
                    <mxGeometry x="730" y="770" width="50" height="50" as="geometry"/>
                </mxCell>
                <mxCell id="439" value="" style="shape=offPageConnector;whiteSpace=wrap;html=1;strokeColor=#000000;fontSize=16;fontColor=#000000;fillColor=#808080;rotation=-180;" vertex="1" parent="438">
                    <mxGeometry width="50" height="50" as="geometry"/>
                </mxCell>
                <mxCell id="440" value="&lt;font color=&quot;#000000&quot;&gt;2&lt;/font&gt;" style="ellipse;whiteSpace=wrap;html=1;aspect=fixed;fillColor=#f9f7ed;strokeColor=#36393d;" vertex="1" parent="438">
                    <mxGeometry x="5" y="9" width="40" height="40" as="geometry"/>
                </mxCell>
                <mxCell id="441" value="" style="whiteSpace=wrap;html=1;aspect=fixed;fillColor=#f9f7ed;strokeColor=#000000;" vertex="1" parent="438">
                    <mxGeometry x="10" y="14" width="30" height="30" as="geometry"/>
                </mxCell>
                <mxCell id="442" value="" style="group" vertex="1" connectable="0" parent="1">
                    <mxGeometry x="790" y="740" width="50" height="50" as="geometry"/>
                </mxCell>
                <mxCell id="443" value="" style="shape=offPageConnector;whiteSpace=wrap;html=1;strokeColor=#000000;fontSize=16;fontColor=#000000;fillColor=#808080;rotation=-180;" vertex="1" parent="442">
                    <mxGeometry width="50" height="50" as="geometry"/>
                </mxCell>
                <mxCell id="444" value="&lt;font color=&quot;#000000&quot;&gt;2&lt;/font&gt;" style="ellipse;whiteSpace=wrap;html=1;aspect=fixed;fillColor=#f9f7ed;strokeColor=#36393d;" vertex="1" parent="442">
                    <mxGeometry x="5" y="9" width="40" height="40" as="geometry"/>
                </mxCell>
                <mxCell id="445" value="" style="whiteSpace=wrap;html=1;aspect=fixed;fillColor=#f9f7ed;strokeColor=#000000;" vertex="1" parent="442">
                    <mxGeometry x="10" y="14" width="30" height="30" as="geometry"/>
                </mxCell>
                <mxCell id="446" value="" style="group" vertex="1" connectable="0" parent="1">
                    <mxGeometry x="810" y="680" width="50" height="50" as="geometry"/>
                </mxCell>
                <mxCell id="447" value="" style="shape=offPageConnector;whiteSpace=wrap;html=1;strokeColor=#000000;fontSize=16;fontColor=#000000;fillColor=#808080;rotation=-180;" vertex="1" parent="446">
                    <mxGeometry width="50" height="50" as="geometry"/>
                </mxCell>
                <mxCell id="448" value="&lt;font color=&quot;#000000&quot;&gt;2&lt;/font&gt;" style="ellipse;whiteSpace=wrap;html=1;aspect=fixed;fillColor=#f9f7ed;strokeColor=#36393d;" vertex="1" parent="446">
                    <mxGeometry x="5" y="9" width="40" height="40" as="geometry"/>
                </mxCell>
                <mxCell id="449" value="" style="whiteSpace=wrap;html=1;aspect=fixed;fillColor=#f9f7ed;strokeColor=#000000;" vertex="1" parent="446">
                    <mxGeometry x="10" y="14" width="30" height="30" as="geometry"/>
                </mxCell>
                <mxCell id="450" value="" style="group" vertex="1" connectable="0" parent="1">
                    <mxGeometry x="880" y="620" width="50" height="50" as="geometry"/>
                </mxCell>
                <mxCell id="451" value="" style="shape=offPageConnector;whiteSpace=wrap;html=1;strokeColor=#000000;fontSize=16;fontColor=#000000;fillColor=#808080;rotation=-180;" vertex="1" parent="450">
                    <mxGeometry width="50" height="50" as="geometry"/>
                </mxCell>
                <mxCell id="452" value="&lt;font color=&quot;#000000&quot;&gt;2&lt;/font&gt;" style="ellipse;whiteSpace=wrap;html=1;aspect=fixed;fillColor=#f9f7ed;strokeColor=#36393d;" vertex="1" parent="450">
                    <mxGeometry x="5" y="9" width="40" height="40" as="geometry"/>
                </mxCell>
                <mxCell id="453" value="" style="whiteSpace=wrap;html=1;aspect=fixed;fillColor=#f9f7ed;strokeColor=#000000;" vertex="1" parent="450">
                    <mxGeometry x="10" y="14" width="30" height="30" as="geometry"/>
                </mxCell>
                <mxCell id="454" value="" style="group" vertex="1" connectable="0" parent="1">
                    <mxGeometry x="940" y="620" width="50" height="50" as="geometry"/>
                </mxCell>
                <mxCell id="455" value="" style="shape=offPageConnector;whiteSpace=wrap;html=1;strokeColor=#000000;fontSize=16;fontColor=#000000;fillColor=#808080;rotation=-180;" vertex="1" parent="454">
                    <mxGeometry width="50" height="50" as="geometry"/>
                </mxCell>
                <mxCell id="456" value="&lt;font color=&quot;#000000&quot;&gt;2&lt;/font&gt;" style="ellipse;whiteSpace=wrap;html=1;aspect=fixed;fillColor=#f9f7ed;strokeColor=#36393d;" vertex="1" parent="454">
                    <mxGeometry x="5" y="9" width="40" height="40" as="geometry"/>
                </mxCell>
                <mxCell id="457" value="" style="whiteSpace=wrap;html=1;aspect=fixed;fillColor=#f9f7ed;strokeColor=#000000;" vertex="1" parent="454">
                    <mxGeometry x="10" y="14" width="30" height="30" as="geometry"/>
                </mxCell>
                <mxCell id="458" value="" style="group" vertex="1" connectable="0" parent="1">
                    <mxGeometry x="1000" y="620" width="50" height="50" as="geometry"/>
                </mxCell>
                <mxCell id="459" value="" style="shape=offPageConnector;whiteSpace=wrap;html=1;strokeColor=#000000;fontSize=16;fontColor=#000000;fillColor=#808080;rotation=-180;" vertex="1" parent="458">
                    <mxGeometry width="50" height="50" as="geometry"/>
                </mxCell>
                <mxCell id="460" value="&lt;font color=&quot;#000000&quot;&gt;2&lt;/font&gt;" style="ellipse;whiteSpace=wrap;html=1;aspect=fixed;fillColor=#f9f7ed;strokeColor=#36393d;" vertex="1" parent="458">
                    <mxGeometry x="5" y="9" width="40" height="40" as="geometry"/>
                </mxCell>
                <mxCell id="461" value="" style="whiteSpace=wrap;html=1;aspect=fixed;fillColor=#f9f7ed;strokeColor=#000000;" vertex="1" parent="458">
                    <mxGeometry x="10" y="14" width="30" height="30" as="geometry"/>
                </mxCell>
                <mxCell id="462" value="" style="group" vertex="1" connectable="0" parent="1">
                    <mxGeometry x="1170" y="620" width="50" height="50" as="geometry"/>
                </mxCell>
                <mxCell id="463" value="" style="shape=offPageConnector;whiteSpace=wrap;html=1;strokeColor=#000000;fontSize=16;fontColor=#000000;fillColor=#808080;rotation=-180;" vertex="1" parent="462">
                    <mxGeometry width="50" height="50" as="geometry"/>
                </mxCell>
                <mxCell id="464" value="&lt;font color=&quot;#000000&quot;&gt;2&lt;/font&gt;" style="ellipse;whiteSpace=wrap;html=1;aspect=fixed;fillColor=#f9f7ed;strokeColor=#36393d;" vertex="1" parent="462">
                    <mxGeometry x="5" y="9" width="40" height="40" as="geometry"/>
                </mxCell>
                <mxCell id="465" value="" style="whiteSpace=wrap;html=1;aspect=fixed;fillColor=#f9f7ed;strokeColor=#000000;" vertex="1" parent="462">
                    <mxGeometry x="10" y="14" width="30" height="30" as="geometry"/>
                </mxCell>
                <mxCell id="466" value="" style="group" vertex="1" connectable="0" parent="1">
                    <mxGeometry x="1230" y="620" width="50" height="50" as="geometry"/>
                </mxCell>
                <mxCell id="467" value="" style="shape=offPageConnector;whiteSpace=wrap;html=1;strokeColor=#000000;fontSize=16;fontColor=#000000;fillColor=#808080;rotation=-180;" vertex="1" parent="466">
                    <mxGeometry width="50" height="50" as="geometry"/>
                </mxCell>
                <mxCell id="468" value="&lt;font color=&quot;#000000&quot;&gt;2&lt;/font&gt;" style="ellipse;whiteSpace=wrap;html=1;aspect=fixed;fillColor=#f9f7ed;strokeColor=#36393d;" vertex="1" parent="466">
                    <mxGeometry x="5" y="9" width="40" height="40" as="geometry"/>
                </mxCell>
                <mxCell id="469" value="" style="whiteSpace=wrap;html=1;aspect=fixed;fillColor=#f9f7ed;strokeColor=#000000;" vertex="1" parent="466">
                    <mxGeometry x="10" y="14" width="30" height="30" as="geometry"/>
                </mxCell>
                <mxCell id="470" value="" style="group" vertex="1" connectable="0" parent="1">
                    <mxGeometry x="1290" y="620" width="50" height="50" as="geometry"/>
                </mxCell>
                <mxCell id="471" value="" style="shape=offPageConnector;whiteSpace=wrap;html=1;strokeColor=#000000;fontSize=16;fontColor=#000000;fillColor=#808080;rotation=-180;" vertex="1" parent="470">
                    <mxGeometry width="50" height="50" as="geometry"/>
                </mxCell>
                <mxCell id="472" value="&lt;font color=&quot;#000000&quot;&gt;2&lt;/font&gt;" style="ellipse;whiteSpace=wrap;html=1;aspect=fixed;fillColor=#f9f7ed;strokeColor=#36393d;" vertex="1" parent="470">
                    <mxGeometry x="5" y="9" width="40" height="40" as="geometry"/>
                </mxCell>
                <mxCell id="473" value="" style="whiteSpace=wrap;html=1;aspect=fixed;fillColor=#f9f7ed;strokeColor=#000000;" vertex="1" parent="470">
                    <mxGeometry x="10" y="14" width="30" height="30" as="geometry"/>
                </mxCell>
                <mxCell id="474" value="" style="group" vertex="1" connectable="0" parent="1">
                    <mxGeometry x="1060" y="620" width="50" height="50" as="geometry"/>
                </mxCell>
                <mxCell id="475" value="" style="shape=offPageConnector;whiteSpace=wrap;html=1;strokeColor=#000000;fontSize=16;fontColor=#000000;fillColor=#808080;rotation=-180;" vertex="1" parent="474">
                    <mxGeometry width="50" height="50" as="geometry"/>
                </mxCell>
                <mxCell id="476" value="&lt;font color=&quot;#000000&quot;&gt;2&lt;/font&gt;" style="ellipse;whiteSpace=wrap;html=1;aspect=fixed;fillColor=#f9f7ed;strokeColor=#36393d;" vertex="1" parent="474">
                    <mxGeometry x="5" y="9" width="40" height="40" as="geometry"/>
                </mxCell>
                <mxCell id="477" value="" style="whiteSpace=wrap;html=1;aspect=fixed;fillColor=#f9f7ed;strokeColor=#000000;" vertex="1" parent="474">
                    <mxGeometry x="10" y="14" width="30" height="30" as="geometry"/>
                </mxCell>
                <mxCell id="480" value="" style="group" vertex="1" connectable="0" parent="1">
                    <mxGeometry x="1350" y="620" width="50" height="50" as="geometry"/>
                </mxCell>
                <mxCell id="481" value="" style="shape=offPageConnector;whiteSpace=wrap;html=1;strokeColor=#000000;fontSize=16;fontColor=#000000;fillColor=#808080;rotation=-180;" vertex="1" parent="480">
                    <mxGeometry width="50" height="50" as="geometry"/>
                </mxCell>
                <mxCell id="482" value="&lt;font color=&quot;#000000&quot;&gt;2&lt;/font&gt;" style="ellipse;whiteSpace=wrap;html=1;aspect=fixed;fillColor=#f9f7ed;strokeColor=#36393d;" vertex="1" parent="480">
                    <mxGeometry x="5" y="9" width="40" height="40" as="geometry"/>
                </mxCell>
                <mxCell id="483" value="" style="whiteSpace=wrap;html=1;aspect=fixed;fillColor=#f9f7ed;strokeColor=#000000;" vertex="1" parent="480">
                    <mxGeometry x="10" y="14" width="30" height="30" as="geometry"/>
                </mxCell>
                <mxCell id="485" value="" style="group" vertex="1" connectable="0" parent="1">
                    <mxGeometry x="1165" y="270" width="50" height="50" as="geometry"/>
                </mxCell>
                <mxCell id="486" value="" style="shape=offPageConnector;whiteSpace=wrap;html=1;strokeColor=#000000;fontSize=16;fontColor=#000000;fillColor=#808080;rotation=-180;" vertex="1" parent="485">
                    <mxGeometry width="50" height="50" as="geometry"/>
                </mxCell>
                <mxCell id="487" value="&lt;font color=&quot;#000000&quot;&gt;2&lt;/font&gt;" style="ellipse;whiteSpace=wrap;html=1;aspect=fixed;fillColor=#f9f7ed;strokeColor=#36393d;" vertex="1" parent="485">
                    <mxGeometry x="5" y="9" width="40" height="40" as="geometry"/>
                </mxCell>
                <mxCell id="488" value="" style="whiteSpace=wrap;html=1;aspect=fixed;fillColor=#f9f7ed;strokeColor=#000000;" vertex="1" parent="485">
                    <mxGeometry x="10" y="14" width="30" height="30" as="geometry"/>
                </mxCell>
                <mxCell id="489" value="" style="group" vertex="1" connectable="0" parent="1">
                    <mxGeometry x="1110" y="230" width="50" height="50" as="geometry"/>
                </mxCell>
                <mxCell id="490" value="" style="shape=offPageConnector;whiteSpace=wrap;html=1;strokeColor=#000000;fontSize=16;fontColor=#000000;fillColor=#808080;rotation=-180;" vertex="1" parent="489">
                    <mxGeometry width="50" height="50" as="geometry"/>
                </mxCell>
                <mxCell id="491" value="&lt;font color=&quot;#000000&quot;&gt;2&lt;/font&gt;" style="ellipse;whiteSpace=wrap;html=1;aspect=fixed;fillColor=#f9f7ed;strokeColor=#36393d;" vertex="1" parent="489">
                    <mxGeometry x="5" y="9" width="40" height="40" as="geometry"/>
                </mxCell>
                <mxCell id="492" value="" style="whiteSpace=wrap;html=1;aspect=fixed;fillColor=#f9f7ed;strokeColor=#000000;" vertex="1" parent="489">
                    <mxGeometry x="10" y="14" width="30" height="30" as="geometry"/>
                </mxCell>
                <mxCell id="493" value="" style="group" vertex="1" connectable="0" parent="1">
                    <mxGeometry x="1100" y="170" width="50" height="50" as="geometry"/>
                </mxCell>
                <mxCell id="494" value="" style="shape=offPageConnector;whiteSpace=wrap;html=1;strokeColor=#000000;fontSize=16;fontColor=#000000;fillColor=#808080;rotation=-180;" vertex="1" parent="493">
                    <mxGeometry width="50" height="50" as="geometry"/>
                </mxCell>
                <mxCell id="495" value="&lt;font color=&quot;#000000&quot;&gt;2&lt;/font&gt;" style="ellipse;whiteSpace=wrap;html=1;aspect=fixed;fillColor=#f9f7ed;strokeColor=#36393d;" vertex="1" parent="493">
                    <mxGeometry x="5" y="9" width="40" height="40" as="geometry"/>
                </mxCell>
                <mxCell id="496" value="" style="whiteSpace=wrap;html=1;aspect=fixed;fillColor=#f9f7ed;strokeColor=#000000;" vertex="1" parent="493">
                    <mxGeometry x="10" y="14" width="30" height="30" as="geometry"/>
                </mxCell>
                <mxCell id="497" value="" style="group" vertex="1" connectable="0" parent="1">
                    <mxGeometry x="1215" y="320" width="50" height="50" as="geometry"/>
                </mxCell>
                <mxCell id="498" value="" style="shape=offPageConnector;whiteSpace=wrap;html=1;strokeColor=#000000;fontSize=16;fontColor=#000000;fillColor=#808080;rotation=-180;" vertex="1" parent="497">
                    <mxGeometry width="50" height="50" as="geometry"/>
                </mxCell>
                <mxCell id="499" value="&lt;font color=&quot;#000000&quot;&gt;2&lt;/font&gt;" style="ellipse;whiteSpace=wrap;html=1;aspect=fixed;fillColor=#f9f7ed;strokeColor=#36393d;" vertex="1" parent="497">
                    <mxGeometry x="5" y="9" width="40" height="40" as="geometry"/>
                </mxCell>
                <mxCell id="500" value="" style="whiteSpace=wrap;html=1;aspect=fixed;fillColor=#f9f7ed;strokeColor=#000000;" vertex="1" parent="497">
                    <mxGeometry x="10" y="14" width="30" height="30" as="geometry"/>
                </mxCell>
                <mxCell id="501" value="" style="group" vertex="1" connectable="0" parent="1">
                    <mxGeometry x="1420" y="530" width="50" height="80" as="geometry"/>
                </mxCell>
                <mxCell id="502" value="" style="shape=offPageConnector;whiteSpace=wrap;html=1;strokeColor=#000000;fontSize=16;fontColor=#000000;fillColor=#808080;rotation=-180;" vertex="1" parent="501">
                    <mxGeometry width="50" height="80" as="geometry"/>
                </mxCell>
                <mxCell id="503" value="" style="ellipse;whiteSpace=wrap;html=1;aspect=fixed;fillColor=#f9f7ed;strokeColor=#000000;" vertex="1" parent="501">
                    <mxGeometry x="5" y="34.5" width="40" height="40" as="geometry"/>
                </mxCell>
                <mxCell id="504" value="" style="group;strokeColor=#000000;fontSize=16;fontColor=#000000;fillColor=none;" vertex="1" connectable="0" parent="1">
                    <mxGeometry x="1380" y="540" width="40" height="70" as="geometry"/>
                </mxCell>
                <mxCell id="505" value="" style="shape=offPageConnector;whiteSpace=wrap;html=1;strokeColor=#000000;fontSize=16;fontColor=#000000;fillColor=#808080;rotation=-180;" vertex="1" parent="504">
                    <mxGeometry width="40" height="70" as="geometry"/>
                </mxCell>
                <mxCell id="506" value="" style="whiteSpace=wrap;html=1;aspect=fixed;fillColor=#f9f7ed;strokeColor=#000000;fontSize=16;fontColor=#000000;" vertex="1" parent="504">
                    <mxGeometry x="5" y="34.5" width="30" height="30" as="geometry"/>
                </mxCell>
                <mxCell id="507" value="" style="group;strokeColor=#000000;fontSize=16;fontColor=#000000;fillColor=none;" vertex="1" connectable="0" parent="1">
                    <mxGeometry x="1470" y="540" width="40" height="70" as="geometry"/>
                </mxCell>
                <mxCell id="508" value="" style="shape=offPageConnector;whiteSpace=wrap;html=1;strokeColor=#000000;fontSize=16;fontColor=#000000;fillColor=#808080;rotation=-180;" vertex="1" parent="507">
                    <mxGeometry width="40" height="70" as="geometry"/>
                </mxCell>
                <mxCell id="509" value="" style="whiteSpace=wrap;html=1;aspect=fixed;fillColor=#ffcd28;strokeColor=#000000;fontSize=16;gradientColor=#ffa500;" vertex="1" parent="507">
                    <mxGeometry x="5" y="34.5" width="30" height="30" as="geometry"/>
                </mxCell>
                <mxCell id="510" value="" style="group;strokeColor=#000000;fontSize=16;fontColor=#000000;fillColor=none;" vertex="1" connectable="0" parent="1">
                    <mxGeometry x="1510" y="540" width="40" height="70" as="geometry"/>
                </mxCell>
                <mxCell id="511" value="" style="shape=offPageConnector;whiteSpace=wrap;html=1;strokeColor=#000000;fontSize=16;fontColor=#000000;fillColor=#808080;rotation=-180;" vertex="1" parent="510">
                    <mxGeometry width="40" height="70" as="geometry"/>
                </mxCell>
                <mxCell id="512" value="" style="whiteSpace=wrap;html=1;aspect=fixed;fillColor=#e6d0de;strokeColor=#000000;fontSize=16;gradientColor=#d5739d;" vertex="1" parent="510">
                    <mxGeometry x="5" y="34.5" width="30" height="30" as="geometry"/>
                </mxCell>
                <mxCell id="513" value="" style="group" vertex="1" connectable="0" parent="1">
                    <mxGeometry x="1250" y="365" width="50" height="80" as="geometry"/>
                </mxCell>
                <mxCell id="514" value="" style="shape=offPageConnector;whiteSpace=wrap;html=1;strokeColor=#000000;fontSize=16;fontColor=#000000;fillColor=#808080;rotation=-180;" vertex="1" parent="513">
                    <mxGeometry width="50" height="80" as="geometry"/>
                </mxCell>
                <mxCell id="515" value="" style="ellipse;whiteSpace=wrap;html=1;aspect=fixed;fillColor=#f9f7ed;strokeColor=#000000;" vertex="1" parent="513">
                    <mxGeometry x="5" y="34.5" width="40" height="40" as="geometry"/>
                </mxCell>
                <mxCell id="516" value="" style="group" vertex="1" connectable="0" parent="1">
                    <mxGeometry x="1370" y="360" width="50" height="50" as="geometry"/>
                </mxCell>
                <mxCell id="517" value="" style="shape=offPageConnector;whiteSpace=wrap;html=1;strokeColor=#000000;fontSize=16;fontColor=#000000;fillColor=#808080;rotation=-180;" vertex="1" parent="516">
                    <mxGeometry width="50" height="50" as="geometry"/>
                </mxCell>
                <mxCell id="518" value="&lt;font color=&quot;#000000&quot;&gt;2&lt;/font&gt;" style="ellipse;whiteSpace=wrap;html=1;aspect=fixed;fillColor=#f9f7ed;strokeColor=#36393d;" vertex="1" parent="516">
                    <mxGeometry x="5" y="9" width="40" height="40" as="geometry"/>
                </mxCell>
                <mxCell id="519" value="" style="whiteSpace=wrap;html=1;aspect=fixed;fillColor=#f9f7ed;strokeColor=#000000;" vertex="1" parent="516">
                    <mxGeometry x="10" y="14" width="30" height="30" as="geometry"/>
                </mxCell>
                <mxCell id="520" value="" style="group" vertex="1" connectable="0" parent="1">
                    <mxGeometry x="1410" y="310" width="50" height="50" as="geometry"/>
                </mxCell>
                <mxCell id="521" value="" style="shape=offPageConnector;whiteSpace=wrap;html=1;strokeColor=#000000;fontSize=16;fontColor=#000000;fillColor=#808080;rotation=-180;" vertex="1" parent="520">
                    <mxGeometry width="50" height="50" as="geometry"/>
                </mxCell>
                <mxCell id="522" value="&lt;font color=&quot;#000000&quot;&gt;2&lt;/font&gt;" style="ellipse;whiteSpace=wrap;html=1;aspect=fixed;fillColor=#f9f7ed;strokeColor=#36393d;" vertex="1" parent="520">
                    <mxGeometry x="5" y="9" width="40" height="40" as="geometry"/>
                </mxCell>
                <mxCell id="523" value="" style="whiteSpace=wrap;html=1;aspect=fixed;fillColor=#f9f7ed;strokeColor=#000000;" vertex="1" parent="520">
                    <mxGeometry x="10" y="14" width="30" height="30" as="geometry"/>
                </mxCell>
                <mxCell id="524" value="" style="group" vertex="1" connectable="0" parent="1">
                    <mxGeometry x="1310" y="380" width="50" height="50" as="geometry"/>
                </mxCell>
                <mxCell id="525" value="" style="shape=offPageConnector;whiteSpace=wrap;html=1;strokeColor=#000000;fontSize=16;fontColor=#000000;fillColor=#808080;rotation=-180;" vertex="1" parent="524">
                    <mxGeometry width="50" height="50" as="geometry"/>
                </mxCell>
                <mxCell id="526" value="&lt;font color=&quot;#000000&quot;&gt;2&lt;/font&gt;" style="ellipse;whiteSpace=wrap;html=1;aspect=fixed;fillColor=#f9f7ed;strokeColor=#36393d;" vertex="1" parent="524">
                    <mxGeometry x="5" y="9" width="40" height="40" as="geometry"/>
                </mxCell>
                <mxCell id="527" value="" style="whiteSpace=wrap;html=1;aspect=fixed;fillColor=#f9f7ed;strokeColor=#000000;" vertex="1" parent="524">
                    <mxGeometry x="10" y="14" width="30" height="30" as="geometry"/>
                </mxCell>
                <mxCell id="528" value="" style="group" vertex="1" connectable="0" parent="1">
                    <mxGeometry x="930" y="530" width="50" height="50" as="geometry"/>
                </mxCell>
                <mxCell id="529" value="" style="shape=offPageConnector;whiteSpace=wrap;html=1;strokeColor=#000000;fontSize=16;fontColor=#000000;fillColor=#808080;rotation=-180;" vertex="1" parent="528">
                    <mxGeometry width="50" height="50" as="geometry"/>
                </mxCell>
                <mxCell id="530" value="&lt;font color=&quot;#000000&quot;&gt;2&lt;/font&gt;" style="ellipse;whiteSpace=wrap;html=1;aspect=fixed;fillColor=#f9f7ed;strokeColor=#36393d;" vertex="1" parent="528">
                    <mxGeometry x="5" y="9" width="40" height="40" as="geometry"/>
                </mxCell>
                <mxCell id="531" value="" style="whiteSpace=wrap;html=1;aspect=fixed;fillColor=#f9f7ed;strokeColor=#000000;" vertex="1" parent="528">
                    <mxGeometry x="10" y="14" width="30" height="30" as="geometry"/>
                </mxCell>
                <mxCell id="532" value="" style="group" vertex="1" connectable="0" parent="1">
                    <mxGeometry x="980" y="490" width="50" height="50" as="geometry"/>
                </mxCell>
                <mxCell id="533" value="" style="shape=offPageConnector;whiteSpace=wrap;html=1;strokeColor=#000000;fontSize=16;fontColor=#000000;fillColor=#808080;rotation=-180;" vertex="1" parent="532">
                    <mxGeometry width="50" height="50" as="geometry"/>
                </mxCell>
                <mxCell id="534" value="&lt;font color=&quot;#000000&quot;&gt;2&lt;/font&gt;" style="ellipse;whiteSpace=wrap;html=1;aspect=fixed;fillColor=#f9f7ed;strokeColor=#36393d;" vertex="1" parent="532">
                    <mxGeometry x="5" y="9" width="40" height="40" as="geometry"/>
                </mxCell>
                <mxCell id="535" value="" style="whiteSpace=wrap;html=1;aspect=fixed;fillColor=#f9f7ed;strokeColor=#000000;" vertex="1" parent="532">
                    <mxGeometry x="10" y="14" width="30" height="30" as="geometry"/>
                </mxCell>
                <mxCell id="536" value="" style="group" vertex="1" connectable="0" parent="1">
                    <mxGeometry x="870" y="550" width="50" height="50" as="geometry"/>
                </mxCell>
                <mxCell id="537" value="" style="shape=offPageConnector;whiteSpace=wrap;html=1;strokeColor=#000000;fontSize=16;fontColor=#000000;fillColor=#808080;rotation=-180;" vertex="1" parent="536">
                    <mxGeometry width="50" height="50" as="geometry"/>
                </mxCell>
                <mxCell id="538" value="&lt;font color=&quot;#000000&quot;&gt;2&lt;/font&gt;" style="ellipse;whiteSpace=wrap;html=1;aspect=fixed;fillColor=#f9f7ed;strokeColor=#36393d;" vertex="1" parent="536">
                    <mxGeometry x="5" y="9" width="40" height="40" as="geometry"/>
                </mxCell>
                <mxCell id="539" value="" style="whiteSpace=wrap;html=1;aspect=fixed;fillColor=#f9f7ed;strokeColor=#000000;" vertex="1" parent="536">
                    <mxGeometry x="10" y="14" width="30" height="30" as="geometry"/>
                </mxCell>
                <mxCell id="540" value="" style="group" vertex="1" connectable="0" parent="1">
                    <mxGeometry x="900" y="390" width="50" height="50" as="geometry"/>
                </mxCell>
                <mxCell id="541" value="" style="shape=offPageConnector;whiteSpace=wrap;html=1;strokeColor=#000000;fontSize=16;fontColor=#000000;fillColor=#808080;rotation=-180;" vertex="1" parent="540">
                    <mxGeometry width="50" height="50" as="geometry"/>
                </mxCell>
                <mxCell id="542" value="&lt;font color=&quot;#000000&quot;&gt;2&lt;/font&gt;" style="ellipse;whiteSpace=wrap;html=1;aspect=fixed;fillColor=#f9f7ed;strokeColor=#36393d;" vertex="1" parent="540">
                    <mxGeometry x="5" y="9" width="40" height="40" as="geometry"/>
                </mxCell>
                <mxCell id="543" value="" style="whiteSpace=wrap;html=1;aspect=fixed;fillColor=#f9f7ed;strokeColor=#000000;" vertex="1" parent="540">
                    <mxGeometry x="10" y="14" width="30" height="30" as="geometry"/>
                </mxCell>
                <mxCell id="544" value="" style="group" vertex="1" connectable="0" parent="1">
                    <mxGeometry x="840" y="365" width="50" height="50" as="geometry"/>
                </mxCell>
                <mxCell id="545" value="" style="shape=offPageConnector;whiteSpace=wrap;html=1;strokeColor=#000000;fontSize=16;fontColor=#000000;fillColor=#808080;rotation=-180;" vertex="1" parent="544">
                    <mxGeometry width="50" height="50" as="geometry"/>
                </mxCell>
                <mxCell id="546" value="&lt;font color=&quot;#000000&quot;&gt;2&lt;/font&gt;" style="ellipse;whiteSpace=wrap;html=1;aspect=fixed;fillColor=#f9f7ed;strokeColor=#36393d;" vertex="1" parent="544">
                    <mxGeometry x="5" y="9" width="40" height="40" as="geometry"/>
                </mxCell>
                <mxCell id="547" value="" style="whiteSpace=wrap;html=1;aspect=fixed;fillColor=#f9f7ed;strokeColor=#000000;" vertex="1" parent="544">
                    <mxGeometry x="10" y="14" width="30" height="30" as="geometry"/>
                </mxCell>
                <mxCell id="548" value="" style="group" vertex="1" connectable="0" parent="1">
                    <mxGeometry x="775" y="340" width="50" height="50" as="geometry"/>
                </mxCell>
                <mxCell id="549" value="" style="shape=offPageConnector;whiteSpace=wrap;html=1;strokeColor=#000000;fontSize=16;fontColor=#000000;fillColor=#808080;rotation=-180;" vertex="1" parent="548">
                    <mxGeometry width="50" height="50" as="geometry"/>
                </mxCell>
                <mxCell id="550" value="&lt;font color=&quot;#000000&quot;&gt;2&lt;/font&gt;" style="ellipse;whiteSpace=wrap;html=1;aspect=fixed;fillColor=#f9f7ed;strokeColor=#36393d;" vertex="1" parent="548">
                    <mxGeometry x="5" y="9" width="40" height="40" as="geometry"/>
                </mxCell>
                <mxCell id="551" value="" style="whiteSpace=wrap;html=1;aspect=fixed;fillColor=#f9f7ed;strokeColor=#000000;" vertex="1" parent="548">
                    <mxGeometry x="10" y="14" width="30" height="30" as="geometry"/>
                </mxCell>
                <mxCell id="552" value="" style="group" vertex="1" connectable="0" parent="1">
                    <mxGeometry x="110" y="340" width="40" height="70" as="geometry"/>
                </mxCell>
                <mxCell id="553" value="" style="shape=offPageConnector;whiteSpace=wrap;html=1;strokeColor=#000000;fontSize=16;fontColor=#000000;fillColor=#808080;rotation=-180;" vertex="1" parent="552">
                    <mxGeometry width="40" height="70" as="geometry"/>
                </mxCell>
                <mxCell id="554" value="" style="whiteSpace=wrap;html=1;aspect=fixed;fillColor=#f9f7ed;strokeColor=#000000;" vertex="1" parent="552">
                    <mxGeometry x="5" y="34.5" width="30" height="30" as="geometry"/>
                </mxCell>
                <mxCell id="555" value="" style="group;strokeColor=#000000;fontSize=16;fontColor=#000000;fillColor=none;" vertex="1" connectable="0" parent="1">
                    <mxGeometry x="70" y="340" width="40" height="70" as="geometry"/>
                </mxCell>
                <mxCell id="556" value="" style="shape=offPageConnector;whiteSpace=wrap;html=1;strokeColor=#000000;fontSize=16;fontColor=#000000;fillColor=#808080;rotation=-180;" vertex="1" parent="555">
                    <mxGeometry width="40" height="70" as="geometry"/>
                </mxCell>
                <mxCell id="557" value="" style="whiteSpace=wrap;html=1;aspect=fixed;fillColor=#ffcd28;strokeColor=#000000;fontSize=16;gradientColor=#ffa500;" vertex="1" parent="555">
                    <mxGeometry x="5" y="34.5" width="30" height="30" as="geometry"/>
                </mxCell>
                <mxCell id="559" value="" style="group" vertex="1" connectable="0" parent="1">
                    <mxGeometry x="705" y="280" width="40" height="70" as="geometry"/>
                </mxCell>
                <mxCell id="235" value="" style="shape=offPageConnector;whiteSpace=wrap;html=1;strokeColor=#000000;fontSize=16;fontColor=#000000;fillColor=#808080;rotation=-180;container=0;" vertex="1" parent="559">
                    <mxGeometry width="40" height="70" as="geometry"/>
                </mxCell>
                <mxCell id="236" value="" style="whiteSpace=wrap;html=1;aspect=fixed;fillColor=#e6d0de;strokeColor=#000000;container=0;gradientColor=#d5739d;" vertex="1" parent="559">
                    <mxGeometry x="5" y="34.5" width="30" height="30" as="geometry"/>
                </mxCell>
                <mxCell id="560" value="" style="group" vertex="1" connectable="0" parent="1">
                    <mxGeometry x="1130" y="420" width="50" height="50" as="geometry"/>
                </mxCell>
                <mxCell id="561" value="" style="shape=offPageConnector;whiteSpace=wrap;html=1;strokeColor=#000000;fontSize=16;fontColor=#000000;fillColor=#808080;rotation=-180;" vertex="1" parent="560">
                    <mxGeometry width="50" height="50" as="geometry"/>
                </mxCell>
                <mxCell id="562" value="&lt;font color=&quot;#000000&quot;&gt;2&lt;/font&gt;" style="ellipse;whiteSpace=wrap;html=1;aspect=fixed;fillColor=#f9f7ed;strokeColor=#36393d;" vertex="1" parent="560">
                    <mxGeometry x="5" y="9" width="40" height="40" as="geometry"/>
                </mxCell>
                <mxCell id="563" value="" style="whiteSpace=wrap;html=1;aspect=fixed;fillColor=#f9f7ed;strokeColor=#000000;" vertex="1" parent="560">
                    <mxGeometry x="10" y="14" width="30" height="30" as="geometry"/>
                </mxCell>
                <mxCell id="564" value="" style="group" vertex="1" connectable="0" parent="1">
                    <mxGeometry x="1190" y="410" width="50" height="50" as="geometry"/>
                </mxCell>
                <mxCell id="565" value="" style="shape=offPageConnector;whiteSpace=wrap;html=1;strokeColor=#000000;fontSize=16;fontColor=#000000;fillColor=#808080;rotation=-180;" vertex="1" parent="564">
                    <mxGeometry width="50" height="50" as="geometry"/>
                </mxCell>
                <mxCell id="566" value="&lt;font color=&quot;#000000&quot;&gt;2&lt;/font&gt;" style="ellipse;whiteSpace=wrap;html=1;aspect=fixed;fillColor=#f9f7ed;strokeColor=#36393d;" vertex="1" parent="564">
                    <mxGeometry x="5" y="9" width="40" height="40" as="geometry"/>
                </mxCell>
                <mxCell id="567" value="" style="whiteSpace=wrap;html=1;aspect=fixed;fillColor=#f9f7ed;strokeColor=#000000;" vertex="1" parent="564">
                    <mxGeometry x="10" y="14" width="30" height="30" as="geometry"/>
                </mxCell>
                <mxCell id="568" value="" style="group" vertex="1" connectable="0" parent="1">
                    <mxGeometry x="1065" y="440" width="50" height="50" as="geometry"/>
                </mxCell>
                <mxCell id="569" value="" style="shape=offPageConnector;whiteSpace=wrap;html=1;strokeColor=#000000;fontSize=16;fontColor=#000000;fillColor=#808080;rotation=-180;" vertex="1" parent="568">
                    <mxGeometry width="50" height="50" as="geometry"/>
                </mxCell>
                <mxCell id="570" value="&lt;font color=&quot;#000000&quot;&gt;2&lt;/font&gt;" style="ellipse;whiteSpace=wrap;html=1;aspect=fixed;fillColor=#f9f7ed;strokeColor=#36393d;" vertex="1" parent="568">
                    <mxGeometry x="5" y="9" width="40" height="40" as="geometry"/>
                </mxCell>
                <mxCell id="571" value="" style="whiteSpace=wrap;html=1;aspect=fixed;fillColor=#f9f7ed;strokeColor=#000000;" vertex="1" parent="568">
                    <mxGeometry x="10" y="14" width="30" height="30" as="geometry"/>
                </mxCell>
                <mxCell id="572" value="" style="group" vertex="1" connectable="0" parent="1">
                    <mxGeometry x="1465" y="230" width="40" height="70" as="geometry"/>
                </mxCell>
                <mxCell id="573" value="" style="shape=offPageConnector;whiteSpace=wrap;html=1;strokeColor=#000000;fontSize=16;fontColor=#000000;fillColor=#808080;rotation=-180;" vertex="1" parent="572">
                    <mxGeometry width="40" height="70" as="geometry"/>
                </mxCell>
                <mxCell id="574" value="" style="whiteSpace=wrap;html=1;aspect=fixed;fillColor=#e6d0de;strokeColor=#000000;gradientColor=#d5739d;" vertex="1" parent="572">
                    <mxGeometry x="5" y="34.5" width="30" height="30" as="geometry"/>
                </mxCell>
                <mxCell id="575" value="" style="shape=offPageConnector;whiteSpace=wrap;html=1;strokeColor=#000000;fontSize=16;fontColor=#000000;fillColor=#808080;rotation=-180;" vertex="1" parent="1">
                    <mxGeometry x="1505" y="220" width="50" height="80" as="geometry"/>
                </mxCell>
                <mxCell id="576" value="" style="ellipse;whiteSpace=wrap;html=1;aspect=fixed;fillColor=#ffcd28;strokeColor=#000000;gradientColor=#ffa500;" vertex="1" parent="1">
                    <mxGeometry x="1510" y="254.5" width="40" height="40" as="geometry"/>
                </mxCell>
                <mxCell id="577" value="" style="group" vertex="1" connectable="0" parent="1">
                    <mxGeometry x="1425" y="230" width="40" height="70" as="geometry"/>
                </mxCell>
                <mxCell id="578" value="" style="shape=offPageConnector;whiteSpace=wrap;html=1;strokeColor=#000000;fontSize=16;fontColor=#000000;fillColor=#808080;rotation=-180;" vertex="1" parent="577">
                    <mxGeometry width="40" height="70" as="geometry"/>
                </mxCell>
                <mxCell id="579" value="" style="whiteSpace=wrap;html=1;aspect=fixed;fillColor=#f9f7ed;strokeColor=#000000;" vertex="1" parent="577">
                    <mxGeometry x="5" y="34.5" width="30" height="30" as="geometry"/>
                </mxCell>
                <mxCell id="580" value="" style="group" vertex="1" connectable="0" parent="1">
                    <mxGeometry x="1490" y="470" width="50" height="50" as="geometry"/>
                </mxCell>
                <mxCell id="581" value="" style="shape=offPageConnector;whiteSpace=wrap;html=1;strokeColor=#000000;fontSize=16;fontColor=#000000;fillColor=#808080;rotation=-180;" vertex="1" parent="580">
                    <mxGeometry width="50" height="50" as="geometry"/>
                </mxCell>
                <mxCell id="582" value="&lt;font color=&quot;#000000&quot;&gt;2&lt;/font&gt;" style="ellipse;whiteSpace=wrap;html=1;aspect=fixed;fillColor=#f9f7ed;strokeColor=#36393d;" vertex="1" parent="580">
                    <mxGeometry x="5" y="9" width="40" height="40" as="geometry"/>
                </mxCell>
                <mxCell id="583" value="" style="whiteSpace=wrap;html=1;aspect=fixed;fillColor=#f9f7ed;strokeColor=#000000;" vertex="1" parent="580">
                    <mxGeometry x="10" y="14" width="30" height="30" as="geometry"/>
                </mxCell>
                <mxCell id="584" value="" style="group" vertex="1" connectable="0" parent="1">
                    <mxGeometry x="1490" y="400" width="50" height="50" as="geometry"/>
                </mxCell>
                <mxCell id="585" value="" style="shape=offPageConnector;whiteSpace=wrap;html=1;strokeColor=#000000;fontSize=16;fontColor=#000000;fillColor=#808080;rotation=-180;" vertex="1" parent="584">
                    <mxGeometry width="50" height="50" as="geometry"/>
                </mxCell>
                <mxCell id="586" value="&lt;font color=&quot;#000000&quot;&gt;2&lt;/font&gt;" style="ellipse;whiteSpace=wrap;html=1;aspect=fixed;fillColor=#f9f7ed;strokeColor=#36393d;" vertex="1" parent="584">
                    <mxGeometry x="5" y="9" width="40" height="40" as="geometry"/>
                </mxCell>
                <mxCell id="587" value="" style="whiteSpace=wrap;html=1;aspect=fixed;fillColor=#f9f7ed;strokeColor=#000000;" vertex="1" parent="584">
                    <mxGeometry x="10" y="14" width="30" height="30" as="geometry"/>
                </mxCell>
                <mxCell id="588" value="" style="group" vertex="1" connectable="0" parent="1">
                    <mxGeometry x="1490" y="330" width="50" height="50" as="geometry"/>
                </mxCell>
                <mxCell id="589" value="" style="shape=offPageConnector;whiteSpace=wrap;html=1;strokeColor=#000000;fontSize=16;fontColor=#000000;fillColor=#808080;rotation=-180;" vertex="1" parent="588">
                    <mxGeometry width="50" height="50" as="geometry"/>
                </mxCell>
                <mxCell id="590" value="&lt;font color=&quot;#000000&quot;&gt;2&lt;/font&gt;" style="ellipse;whiteSpace=wrap;html=1;aspect=fixed;fillColor=#f9f7ed;strokeColor=#36393d;" vertex="1" parent="588">
                    <mxGeometry x="5" y="9" width="40" height="40" as="geometry"/>
                </mxCell>
                <mxCell id="591" value="" style="whiteSpace=wrap;html=1;aspect=fixed;fillColor=#f9f7ed;strokeColor=#000000;" vertex="1" parent="588">
                    <mxGeometry x="10" y="14" width="30" height="30" as="geometry"/>
                </mxCell>
                <mxCell id="593" value="" style="group" vertex="1" connectable="0" parent="1">
                    <mxGeometry x="795" y="850" width="50" height="50" as="geometry"/>
                </mxCell>
                <mxCell id="594" value="" style="shape=offPageConnector;whiteSpace=wrap;html=1;strokeColor=#000000;fontSize=16;fontColor=#000000;fillColor=#808080;rotation=-180;" vertex="1" parent="593">
                    <mxGeometry width="50" height="50" as="geometry"/>
                </mxCell>
                <mxCell id="595" value="&lt;font color=&quot;#000000&quot;&gt;2&lt;/font&gt;" style="ellipse;whiteSpace=wrap;html=1;aspect=fixed;fillColor=#f9f7ed;strokeColor=#36393d;" vertex="1" parent="593">
                    <mxGeometry x="5" y="9" width="40" height="40" as="geometry"/>
                </mxCell>
                <mxCell id="596" value="" style="whiteSpace=wrap;html=1;aspect=fixed;fillColor=#f9f7ed;strokeColor=#000000;" vertex="1" parent="593">
                    <mxGeometry x="10" y="14" width="30" height="30" as="geometry"/>
                </mxCell>
                <mxCell id="597" value="" style="group" vertex="1" connectable="0" parent="1">
                    <mxGeometry x="860" y="850" width="50" height="50" as="geometry"/>
                </mxCell>
                <mxCell id="598" value="" style="shape=offPageConnector;whiteSpace=wrap;html=1;strokeColor=#000000;fontSize=16;fontColor=#000000;fillColor=#808080;rotation=-180;" vertex="1" parent="597">
                    <mxGeometry width="50" height="50" as="geometry"/>
                </mxCell>
                <mxCell id="599" value="&lt;font color=&quot;#000000&quot;&gt;2&lt;/font&gt;" style="ellipse;whiteSpace=wrap;html=1;aspect=fixed;fillColor=#f9f7ed;strokeColor=#36393d;" vertex="1" parent="597">
                    <mxGeometry x="5" y="9" width="40" height="40" as="geometry"/>
                </mxCell>
                <mxCell id="600" value="" style="whiteSpace=wrap;html=1;aspect=fixed;fillColor=#f9f7ed;strokeColor=#000000;" vertex="1" parent="597">
                    <mxGeometry x="10" y="14" width="30" height="30" as="geometry"/>
                </mxCell>
                <mxCell id="601" value="" style="group" vertex="1" connectable="0" parent="1">
                    <mxGeometry x="730" y="850" width="50" height="50" as="geometry"/>
                </mxCell>
                <mxCell id="602" value="" style="shape=offPageConnector;whiteSpace=wrap;html=1;strokeColor=#000000;fontSize=16;fontColor=#000000;fillColor=#808080;rotation=-180;" vertex="1" parent="601">
                    <mxGeometry width="50" height="50" as="geometry"/>
                </mxCell>
                <mxCell id="603" value="&lt;font color=&quot;#000000&quot;&gt;2&lt;/font&gt;" style="ellipse;whiteSpace=wrap;html=1;aspect=fixed;fillColor=#f9f7ed;strokeColor=#36393d;" vertex="1" parent="601">
                    <mxGeometry x="5" y="9" width="40" height="40" as="geometry"/>
                </mxCell>
                <mxCell id="604" value="" style="whiteSpace=wrap;html=1;aspect=fixed;fillColor=#f9f7ed;strokeColor=#000000;" vertex="1" parent="601">
                    <mxGeometry x="10" y="14" width="30" height="30" as="geometry"/>
                </mxCell>
                <mxCell id="607" value="" style="group" vertex="1" connectable="0" parent="1">
                    <mxGeometry x="930" y="830" width="40" height="70" as="geometry"/>
                </mxCell>
                <mxCell id="608" value="" style="shape=offPageConnector;whiteSpace=wrap;html=1;strokeColor=#000000;fontSize=16;fontColor=#000000;fillColor=#808080;rotation=-180;" vertex="1" parent="607">
                    <mxGeometry width="40" height="70" as="geometry"/>
                </mxCell>
                <mxCell id="609" value="" style="whiteSpace=wrap;html=1;aspect=fixed;fillColor=#f9f7ed;strokeColor=#000000;" vertex="1" parent="607">
                    <mxGeometry x="5" y="34.5" width="30" height="30" as="geometry"/>
                </mxCell>
                <mxCell id="610" value="" style="group" vertex="1" connectable="0" parent="1">
                    <mxGeometry x="970" y="830" width="40" height="70" as="geometry"/>
                </mxCell>
                <mxCell id="611" value="" style="shape=offPageConnector;whiteSpace=wrap;html=1;strokeColor=#000000;fontSize=16;fontColor=#000000;fillColor=#808080;rotation=-180;" vertex="1" parent="610">
                    <mxGeometry width="40" height="70" as="geometry"/>
                </mxCell>
                <mxCell id="612" value="" style="whiteSpace=wrap;html=1;aspect=fixed;" vertex="1" parent="610">
                    <mxGeometry x="5" y="34.5" width="30" height="30" as="geometry"/>
                </mxCell>
                <mxCell id="613" value="" style="group" vertex="1" connectable="0" parent="1">
                    <mxGeometry x="1090" y="850" width="50" height="50" as="geometry"/>
                </mxCell>
                <mxCell id="614" value="" style="shape=offPageConnector;whiteSpace=wrap;html=1;strokeColor=#000000;fontSize=16;fontColor=#000000;fillColor=#808080;rotation=-180;" vertex="1" parent="613">
                    <mxGeometry width="50" height="50" as="geometry"/>
                </mxCell>
                <mxCell id="615" value="&lt;font color=&quot;#000000&quot;&gt;2&lt;/font&gt;" style="ellipse;whiteSpace=wrap;html=1;aspect=fixed;fillColor=#f9f7ed;strokeColor=#36393d;" vertex="1" parent="613">
                    <mxGeometry x="5" y="9" width="40" height="40" as="geometry"/>
                </mxCell>
                <mxCell id="616" value="" style="whiteSpace=wrap;html=1;aspect=fixed;fillColor=#f9f7ed;strokeColor=#000000;" vertex="1" parent="613">
                    <mxGeometry x="10" y="14" width="30" height="30" as="geometry"/>
                </mxCell>
                <mxCell id="617" value="" style="group" vertex="1" connectable="0" parent="1">
                    <mxGeometry x="1150" y="849.5" width="50" height="50" as="geometry"/>
                </mxCell>
                <mxCell id="618" value="" style="shape=offPageConnector;whiteSpace=wrap;html=1;strokeColor=#000000;fontSize=16;fontColor=#000000;fillColor=#808080;rotation=-180;" vertex="1" parent="617">
                    <mxGeometry width="50" height="50" as="geometry"/>
                </mxCell>
                <mxCell id="619" value="&lt;font color=&quot;#000000&quot;&gt;2&lt;/font&gt;" style="ellipse;whiteSpace=wrap;html=1;aspect=fixed;fillColor=#f9f7ed;strokeColor=#36393d;" vertex="1" parent="617">
                    <mxGeometry x="5" y="9" width="40" height="40" as="geometry"/>
                </mxCell>
                <mxCell id="620" value="" style="whiteSpace=wrap;html=1;aspect=fixed;fillColor=#f9f7ed;strokeColor=#000000;" vertex="1" parent="617">
                    <mxGeometry x="10" y="14" width="30" height="30" as="geometry"/>
                </mxCell>
                <mxCell id="621" value="" style="group" vertex="1" connectable="0" parent="1">
                    <mxGeometry x="1030" y="850" width="50" height="50" as="geometry"/>
                </mxCell>
                <mxCell id="622" value="" style="shape=offPageConnector;whiteSpace=wrap;html=1;strokeColor=#000000;fontSize=16;fontColor=#000000;fillColor=#808080;rotation=-180;" vertex="1" parent="621">
                    <mxGeometry width="50" height="50" as="geometry"/>
                </mxCell>
                <mxCell id="623" value="&lt;font color=&quot;#000000&quot;&gt;2&lt;/font&gt;" style="ellipse;whiteSpace=wrap;html=1;aspect=fixed;fillColor=#f9f7ed;strokeColor=#36393d;" vertex="1" parent="621">
                    <mxGeometry x="5" y="9" width="40" height="40" as="geometry"/>
                </mxCell>
                <mxCell id="624" value="" style="whiteSpace=wrap;html=1;aspect=fixed;fillColor=#f9f7ed;strokeColor=#000000;" vertex="1" parent="621">
                    <mxGeometry x="10" y="14" width="30" height="30" as="geometry"/>
                </mxCell>
                <mxCell id="625" value="" style="group" vertex="1" connectable="0" parent="1">
                    <mxGeometry x="1230" y="829.5" width="40" height="70" as="geometry"/>
                </mxCell>
                <mxCell id="626" value="" style="shape=offPageConnector;whiteSpace=wrap;html=1;strokeColor=#000000;fontSize=16;fontColor=#000000;fillColor=#808080;rotation=-180;" vertex="1" parent="625">
                    <mxGeometry width="40" height="70" as="geometry"/>
                </mxCell>
                <mxCell id="627" value="" style="whiteSpace=wrap;html=1;aspect=fixed;fillColor=#f9f7ed;strokeColor=#000000;" vertex="1" parent="625">
                    <mxGeometry x="5" y="34.5" width="30" height="30" as="geometry"/>
                </mxCell>
                <mxCell id="628" value="" style="group" vertex="1" connectable="0" parent="1">
                    <mxGeometry x="1300" y="850" width="50" height="50" as="geometry"/>
                </mxCell>
                <mxCell id="629" value="" style="shape=offPageConnector;whiteSpace=wrap;html=1;strokeColor=#000000;fontSize=16;fontColor=#000000;fillColor=#808080;rotation=-180;" vertex="1" parent="628">
                    <mxGeometry width="50" height="50" as="geometry"/>
                </mxCell>
                <mxCell id="630" value="&lt;font color=&quot;#000000&quot;&gt;2&lt;/font&gt;" style="ellipse;whiteSpace=wrap;html=1;aspect=fixed;fillColor=#f9f7ed;strokeColor=#36393d;" vertex="1" parent="628">
                    <mxGeometry x="5" y="9" width="40" height="40" as="geometry"/>
                </mxCell>
                <mxCell id="631" value="" style="whiteSpace=wrap;html=1;aspect=fixed;fillColor=#f9f7ed;strokeColor=#000000;" vertex="1" parent="628">
                    <mxGeometry x="10" y="14" width="30" height="30" as="geometry"/>
                </mxCell>
                <mxCell id="632" value="" style="group" vertex="1" connectable="0" parent="1">
                    <mxGeometry x="1360" y="849.5" width="50" height="50" as="geometry"/>
                </mxCell>
                <mxCell id="633" value="" style="shape=offPageConnector;whiteSpace=wrap;html=1;strokeColor=#000000;fontSize=16;fontColor=#000000;fillColor=#808080;rotation=-180;" vertex="1" parent="632">
                    <mxGeometry width="50" height="50" as="geometry"/>
                </mxCell>
                <mxCell id="634" value="&lt;font color=&quot;#000000&quot;&gt;2&lt;/font&gt;" style="ellipse;whiteSpace=wrap;html=1;aspect=fixed;fillColor=#f9f7ed;strokeColor=#36393d;" vertex="1" parent="632">
                    <mxGeometry x="5" y="9" width="40" height="40" as="geometry"/>
                </mxCell>
                <mxCell id="635" value="" style="whiteSpace=wrap;html=1;aspect=fixed;fillColor=#f9f7ed;strokeColor=#000000;" vertex="1" parent="632">
                    <mxGeometry x="10" y="14" width="30" height="30" as="geometry"/>
                </mxCell>
                <mxCell id="636" value="" style="group" vertex="1" connectable="0" parent="1">
                    <mxGeometry x="1480" y="830" width="40" height="70" as="geometry"/>
                </mxCell>
                <mxCell id="637" value="" style="shape=offPageConnector;whiteSpace=wrap;html=1;strokeColor=#000000;fontSize=16;fontColor=#000000;fillColor=#808080;rotation=-180;" vertex="1" parent="636">
                    <mxGeometry width="40" height="70" as="geometry"/>
                </mxCell>
                <mxCell id="638" value="" style="whiteSpace=wrap;html=1;aspect=fixed;fillColor=#ffcd28;strokeColor=#000000;gradientColor=#ffa500;" vertex="1" parent="636">
                    <mxGeometry x="5" y="34.5" width="30" height="30" as="geometry"/>
                </mxCell>
                <mxCell id="639" value="" style="group" vertex="1" connectable="0" parent="1">
                    <mxGeometry x="1430" y="820" width="50" height="80" as="geometry"/>
                </mxCell>
                <mxCell id="640" value="" style="shape=offPageConnector;whiteSpace=wrap;html=1;strokeColor=#000000;fontSize=16;fontColor=#000000;fillColor=#808080;rotation=-180;" vertex="1" parent="639">
                    <mxGeometry width="50" height="80" as="geometry"/>
                </mxCell>
                <mxCell id="641" value="" style="ellipse;whiteSpace=wrap;html=1;aspect=fixed;fillColor=#f9f7ed;strokeColor=#36393d;" vertex="1" parent="639">
                    <mxGeometry x="5" y="34.5" width="40" height="40" as="geometry"/>
                </mxCell>
                <mxCell id="642" value="" style="group" vertex="1" connectable="0" parent="1">
                    <mxGeometry x="1470" y="750" width="50" height="50" as="geometry"/>
                </mxCell>
                <mxCell id="643" value="" style="shape=offPageConnector;whiteSpace=wrap;html=1;strokeColor=#000000;fontSize=16;fontColor=#000000;fillColor=#808080;rotation=-180;" vertex="1" parent="642">
                    <mxGeometry width="50" height="50" as="geometry"/>
                </mxCell>
                <mxCell id="644" value="&lt;font color=&quot;#000000&quot;&gt;2&lt;/font&gt;" style="ellipse;whiteSpace=wrap;html=1;aspect=fixed;fillColor=#f9f7ed;strokeColor=#36393d;" vertex="1" parent="642">
                    <mxGeometry x="5" y="9" width="40" height="40" as="geometry"/>
                </mxCell>
                <mxCell id="645" value="" style="whiteSpace=wrap;html=1;aspect=fixed;fillColor=#f9f7ed;strokeColor=#000000;" vertex="1" parent="642">
                    <mxGeometry x="10" y="14" width="30" height="30" as="geometry"/>
                </mxCell>
                <mxCell id="646" value="" style="group" vertex="1" connectable="0" parent="1">
                    <mxGeometry x="1470" y="684.5" width="50" height="50" as="geometry"/>
                </mxCell>
                <mxCell id="647" value="" style="shape=offPageConnector;whiteSpace=wrap;html=1;strokeColor=#000000;fontSize=16;fontColor=#000000;fillColor=#808080;rotation=-180;" vertex="1" parent="646">
                    <mxGeometry width="50" height="50" as="geometry"/>
                </mxCell>
                <mxCell id="648" value="&lt;font color=&quot;#000000&quot;&gt;2&lt;/font&gt;" style="ellipse;whiteSpace=wrap;html=1;aspect=fixed;fillColor=#f9f7ed;strokeColor=#36393d;" vertex="1" parent="646">
                    <mxGeometry x="5" y="9" width="40" height="40" as="geometry"/>
                </mxCell>
                <mxCell id="649" value="" style="whiteSpace=wrap;html=1;aspect=fixed;fillColor=#f9f7ed;strokeColor=#000000;" vertex="1" parent="646">
                    <mxGeometry x="10" y="14" width="30" height="30" as="geometry"/>
                </mxCell>
                <mxCell id="650" value="" style="group" vertex="1" connectable="0" parent="1">
                    <mxGeometry x="1470" y="624.5" width="50" height="50" as="geometry"/>
                </mxCell>
                <mxCell id="651" value="" style="shape=offPageConnector;whiteSpace=wrap;html=1;strokeColor=#000000;fontSize=16;fontColor=#000000;fillColor=#808080;rotation=-180;" vertex="1" parent="650">
                    <mxGeometry width="50" height="50" as="geometry"/>
                </mxCell>
                <mxCell id="652" value="&lt;font color=&quot;#000000&quot;&gt;2&lt;/font&gt;" style="ellipse;whiteSpace=wrap;html=1;aspect=fixed;fillColor=#f9f7ed;strokeColor=#36393d;" vertex="1" parent="650">
                    <mxGeometry x="5" y="9" width="40" height="40" as="geometry"/>
                </mxCell>
                <mxCell id="653" value="" style="whiteSpace=wrap;html=1;aspect=fixed;fillColor=#f9f7ed;strokeColor=#000000;" vertex="1" parent="650">
                    <mxGeometry x="10" y="14" width="30" height="30" as="geometry"/>
                </mxCell>
                <mxCell id="654" value="" style="group" vertex="1" connectable="0" parent="1">
                    <mxGeometry x="840" y="1100" width="40" height="70" as="geometry"/>
                </mxCell>
                <mxCell id="655" value="" style="shape=offPageConnector;whiteSpace=wrap;html=1;strokeColor=#000000;fontSize=16;fontColor=#000000;fillColor=#808080;rotation=-180;" vertex="1" parent="654">
                    <mxGeometry width="40" height="70" as="geometry"/>
                </mxCell>
                <mxCell id="656" value="" style="whiteSpace=wrap;html=1;aspect=fixed;fillColor=#ffcd28;strokeColor=#000000;gradientColor=#ffa500;" vertex="1" parent="654">
                    <mxGeometry x="5" y="34.5" width="30" height="30" as="geometry"/>
                </mxCell>
                <mxCell id="657" value="" style="group;strokeColor=#000000;fontSize=16;fontColor=#000000;fillColor=none;" vertex="1" connectable="0" parent="1">
                    <mxGeometry x="800" y="1100" width="40" height="70" as="geometry"/>
                </mxCell>
                <mxCell id="658" value="" style="shape=offPageConnector;whiteSpace=wrap;html=1;strokeColor=#000000;fontSize=16;fontColor=#000000;fillColor=#808080;rotation=-180;" vertex="1" parent="657">
                    <mxGeometry width="40" height="70" as="geometry"/>
                </mxCell>
                <mxCell id="659" value="" style="whiteSpace=wrap;html=1;aspect=fixed;fillColor=#f9f7ed;strokeColor=#000000;fontSize=16;fontColor=#000000;" vertex="1" parent="657">
                    <mxGeometry x="5" y="34.5" width="30" height="30" as="geometry"/>
                </mxCell>
                <mxCell id="660" value="" style="group" vertex="1" connectable="0" parent="1">
                    <mxGeometry x="950" y="1119.5" width="50" height="50" as="geometry"/>
                </mxCell>
                <mxCell id="661" value="" style="shape=offPageConnector;whiteSpace=wrap;html=1;strokeColor=#000000;fontSize=16;fontColor=#000000;fillColor=#808080;rotation=-180;" vertex="1" parent="660">
                    <mxGeometry width="50" height="50" as="geometry"/>
                </mxCell>
                <mxCell id="662" value="&lt;font color=&quot;#000000&quot;&gt;2&lt;/font&gt;" style="ellipse;whiteSpace=wrap;html=1;aspect=fixed;fillColor=#f9f7ed;strokeColor=#36393d;" vertex="1" parent="660">
                    <mxGeometry x="5" y="9" width="40" height="40" as="geometry"/>
                </mxCell>
                <mxCell id="663" value="" style="whiteSpace=wrap;html=1;aspect=fixed;fillColor=#f9f7ed;strokeColor=#000000;" vertex="1" parent="660">
                    <mxGeometry x="10" y="14" width="30" height="30" as="geometry"/>
                </mxCell>
                <mxCell id="664" value="" style="group" vertex="1" connectable="0" parent="1">
                    <mxGeometry x="1005" y="1120.5" width="50" height="50" as="geometry"/>
                </mxCell>
                <mxCell id="665" value="" style="shape=offPageConnector;whiteSpace=wrap;html=1;strokeColor=#000000;fontSize=16;fontColor=#000000;fillColor=#808080;rotation=-180;" vertex="1" parent="664">
                    <mxGeometry width="50" height="50" as="geometry"/>
                </mxCell>
                <mxCell id="666" value="&lt;font color=&quot;#000000&quot;&gt;2&lt;/font&gt;" style="ellipse;whiteSpace=wrap;html=1;aspect=fixed;fillColor=#f9f7ed;strokeColor=#36393d;" vertex="1" parent="664">
                    <mxGeometry x="5" y="9" width="40" height="40" as="geometry"/>
                </mxCell>
                <mxCell id="667" value="" style="whiteSpace=wrap;html=1;aspect=fixed;fillColor=#f9f7ed;strokeColor=#000000;" vertex="1" parent="664">
                    <mxGeometry x="10" y="14" width="30" height="30" as="geometry"/>
                </mxCell>
                <mxCell id="668" value="" style="group" vertex="1" connectable="0" parent="1">
                    <mxGeometry x="890" y="1119.5" width="50" height="50" as="geometry"/>
                </mxCell>
                <mxCell id="669" value="" style="shape=offPageConnector;whiteSpace=wrap;html=1;strokeColor=#000000;fontSize=16;fontColor=#000000;fillColor=#808080;rotation=-180;" vertex="1" parent="668">
                    <mxGeometry width="50" height="50" as="geometry"/>
                </mxCell>
                <mxCell id="670" value="&lt;font color=&quot;#000000&quot;&gt;2&lt;/font&gt;" style="ellipse;whiteSpace=wrap;html=1;aspect=fixed;fillColor=#f9f7ed;strokeColor=#36393d;" vertex="1" parent="668">
                    <mxGeometry x="5" y="9" width="40" height="40" as="geometry"/>
                </mxCell>
                <mxCell id="671" value="" style="whiteSpace=wrap;html=1;aspect=fixed;fillColor=#f9f7ed;strokeColor=#000000;" vertex="1" parent="668">
                    <mxGeometry x="10" y="14" width="30" height="30" as="geometry"/>
                </mxCell>
                <mxCell id="672" value="" style="shape=offPageConnector;whiteSpace=wrap;html=1;strokeColor=#000000;fontSize=16;fontColor=#000000;fillColor=#808080;rotation=-180;" vertex="1" parent="1">
                    <mxGeometry x="1070" y="1090" width="50" height="80" as="geometry"/>
                </mxCell>
                <mxCell id="673" value="" style="ellipse;whiteSpace=wrap;html=1;aspect=fixed;fillColor=#ffcd28;strokeColor=#000000;gradientColor=#ffa500;" vertex="1" parent="1">
                    <mxGeometry x="1075" y="1124.5" width="40" height="40" as="geometry"/>
                </mxCell>
                <mxCell id="674" value="" style="shape=offPageConnector;whiteSpace=wrap;html=1;strokeColor=#000000;fontSize=16;fontColor=#000000;fillColor=#808080;rotation=-180;" vertex="1" parent="1">
                    <mxGeometry x="1120" y="1090.5" width="50" height="80" as="geometry"/>
                </mxCell>
                <mxCell id="675" value="" style="ellipse;whiteSpace=wrap;html=1;aspect=fixed;fillColor=#e6d0de;gradientColor=#d5739d;strokeColor=#000000;" vertex="1" parent="1">
                    <mxGeometry x="1125" y="1125" width="40" height="40" as="geometry"/>
                </mxCell>
                <mxCell id="676" value="" style="group" vertex="1" connectable="0" parent="1">
                    <mxGeometry x="1230" y="904.5" width="50" height="50" as="geometry"/>
                </mxCell>
                <mxCell id="677" value="" style="shape=offPageConnector;whiteSpace=wrap;html=1;strokeColor=#000000;fontSize=16;fontColor=#000000;fillColor=#808080;rotation=-180;" vertex="1" parent="676">
                    <mxGeometry width="50" height="50" as="geometry"/>
                </mxCell>
                <mxCell id="678" value="&lt;font color=&quot;#000000&quot;&gt;2&lt;/font&gt;" style="ellipse;whiteSpace=wrap;html=1;aspect=fixed;fillColor=#f9f7ed;strokeColor=#36393d;" vertex="1" parent="676">
                    <mxGeometry x="5" y="9" width="40" height="40" as="geometry"/>
                </mxCell>
                <mxCell id="679" value="" style="whiteSpace=wrap;html=1;aspect=fixed;fillColor=#f9f7ed;strokeColor=#000000;" vertex="1" parent="676">
                    <mxGeometry x="10" y="14" width="30" height="30" as="geometry"/>
                </mxCell>
                <mxCell id="680" value="" style="group" vertex="1" connectable="0" parent="1">
                    <mxGeometry x="1195" y="960" width="50" height="50" as="geometry"/>
                </mxCell>
                <mxCell id="681" value="" style="shape=offPageConnector;whiteSpace=wrap;html=1;strokeColor=#000000;fontSize=16;fontColor=#000000;fillColor=#808080;rotation=-180;" vertex="1" parent="680">
                    <mxGeometry width="50" height="50" as="geometry"/>
                </mxCell>
                <mxCell id="682" value="&lt;font color=&quot;#000000&quot;&gt;2&lt;/font&gt;" style="ellipse;whiteSpace=wrap;html=1;aspect=fixed;fillColor=#f9f7ed;strokeColor=#36393d;" vertex="1" parent="680">
                    <mxGeometry x="5" y="9" width="40" height="40" as="geometry"/>
                </mxCell>
                <mxCell id="683" value="" style="whiteSpace=wrap;html=1;aspect=fixed;fillColor=#f9f7ed;strokeColor=#000000;" vertex="1" parent="680">
                    <mxGeometry x="10" y="14" width="30" height="30" as="geometry"/>
                </mxCell>
                <mxCell id="684" value="" style="group" vertex="1" connectable="0" parent="1">
                    <mxGeometry x="1140" y="1000" width="50" height="50" as="geometry"/>
                </mxCell>
                <mxCell id="685" value="" style="shape=offPageConnector;whiteSpace=wrap;html=1;strokeColor=#000000;fontSize=16;fontColor=#000000;fillColor=#808080;rotation=-180;" vertex="1" parent="684">
                    <mxGeometry width="50" height="50" as="geometry"/>
                </mxCell>
                <mxCell id="686" value="&lt;font color=&quot;#000000&quot;&gt;2&lt;/font&gt;" style="ellipse;whiteSpace=wrap;html=1;aspect=fixed;fillColor=#f9f7ed;strokeColor=#36393d;" vertex="1" parent="684">
                    <mxGeometry x="5" y="9" width="40" height="40" as="geometry"/>
                </mxCell>
                <mxCell id="687" value="" style="whiteSpace=wrap;html=1;aspect=fixed;fillColor=#f9f7ed;strokeColor=#000000;" vertex="1" parent="684">
                    <mxGeometry x="10" y="14" width="30" height="30" as="geometry"/>
                </mxCell>
                <mxCell id="688" value="" style="group" vertex="1" connectable="0" parent="1">
                    <mxGeometry x="1080" y="1030" width="50" height="50" as="geometry"/>
                </mxCell>
                <mxCell id="689" value="" style="shape=offPageConnector;whiteSpace=wrap;html=1;strokeColor=#000000;fontSize=16;fontColor=#000000;fillColor=#808080;rotation=-180;" vertex="1" parent="688">
                    <mxGeometry width="50" height="50" as="geometry"/>
                </mxCell>
                <mxCell id="690" value="&lt;font color=&quot;#000000&quot;&gt;2&lt;/font&gt;" style="ellipse;whiteSpace=wrap;html=1;aspect=fixed;fillColor=#f9f7ed;strokeColor=#36393d;" vertex="1" parent="688">
                    <mxGeometry x="5" y="9" width="40" height="40" as="geometry"/>
                </mxCell>
                <mxCell id="691" value="" style="whiteSpace=wrap;html=1;aspect=fixed;fillColor=#f9f7ed;strokeColor=#000000;" vertex="1" parent="688">
                    <mxGeometry x="10" y="14" width="30" height="30" as="geometry"/>
                </mxCell>
                <mxCell id="693" value="" style="group" vertex="1" connectable="0" parent="1">
                    <mxGeometry x="1185" y="1120" width="50" height="50" as="geometry"/>
                </mxCell>
                <mxCell id="694" value="" style="shape=offPageConnector;whiteSpace=wrap;html=1;strokeColor=#000000;fontSize=16;fontColor=#000000;fillColor=#808080;rotation=-180;" vertex="1" parent="693">
                    <mxGeometry width="50" height="50" as="geometry"/>
                </mxCell>
                <mxCell id="695" value="&lt;font color=&quot;#000000&quot;&gt;2&lt;/font&gt;" style="ellipse;whiteSpace=wrap;html=1;aspect=fixed;fillColor=#f9f7ed;strokeColor=#36393d;" vertex="1" parent="693">
                    <mxGeometry x="5" y="9" width="40" height="40" as="geometry"/>
                </mxCell>
                <mxCell id="696" value="" style="whiteSpace=wrap;html=1;aspect=fixed;fillColor=#f9f7ed;strokeColor=#000000;" vertex="1" parent="693">
                    <mxGeometry x="10" y="14" width="30" height="30" as="geometry"/>
                </mxCell>
                <mxCell id="697" value="" style="group" vertex="1" connectable="0" parent="1">
                    <mxGeometry x="1245" y="1119.5" width="50" height="50" as="geometry"/>
                </mxCell>
                <mxCell id="698" value="" style="shape=offPageConnector;whiteSpace=wrap;html=1;strokeColor=#000000;fontSize=16;fontColor=#000000;fillColor=#808080;rotation=-180;" vertex="1" parent="697">
                    <mxGeometry width="50" height="50" as="geometry"/>
                </mxCell>
                <mxCell id="699" value="&lt;font color=&quot;#000000&quot;&gt;2&lt;/font&gt;" style="ellipse;whiteSpace=wrap;html=1;aspect=fixed;fillColor=#f9f7ed;strokeColor=#36393d;" vertex="1" parent="697">
                    <mxGeometry x="5" y="9" width="40" height="40" as="geometry"/>
                </mxCell>
                <mxCell id="700" value="" style="whiteSpace=wrap;html=1;aspect=fixed;fillColor=#f9f7ed;strokeColor=#000000;" vertex="1" parent="697">
                    <mxGeometry x="10" y="14" width="30" height="30" as="geometry"/>
                </mxCell>
                <mxCell id="701" value="" style="group" vertex="1" connectable="0" parent="1">
                    <mxGeometry x="1300" y="1119.5" width="50" height="50" as="geometry"/>
                </mxCell>
                <mxCell id="702" value="" style="shape=offPageConnector;whiteSpace=wrap;html=1;strokeColor=#000000;fontSize=16;fontColor=#000000;fillColor=#808080;rotation=-180;" vertex="1" parent="701">
                    <mxGeometry width="50" height="50" as="geometry"/>
                </mxCell>
                <mxCell id="703" value="&lt;font color=&quot;#000000&quot;&gt;2&lt;/font&gt;" style="ellipse;whiteSpace=wrap;html=1;aspect=fixed;fillColor=#f9f7ed;strokeColor=#36393d;" vertex="1" parent="701">
                    <mxGeometry x="5" y="9" width="40" height="40" as="geometry"/>
                </mxCell>
                <mxCell id="704" value="" style="whiteSpace=wrap;html=1;aspect=fixed;fillColor=#f9f7ed;strokeColor=#000000;" vertex="1" parent="701">
                    <mxGeometry x="10" y="14" width="30" height="30" as="geometry"/>
                </mxCell>
                <mxCell id="705" value="" style="group" vertex="1" connectable="0" parent="1">
                    <mxGeometry x="1360" y="1120.5" width="50" height="50" as="geometry"/>
                </mxCell>
                <mxCell id="706" value="" style="shape=offPageConnector;whiteSpace=wrap;html=1;strokeColor=#000000;fontSize=16;fontColor=#000000;fillColor=#808080;rotation=-180;" vertex="1" parent="705">
                    <mxGeometry width="50" height="50" as="geometry"/>
                </mxCell>
                <mxCell id="707" value="&lt;font color=&quot;#000000&quot;&gt;2&lt;/font&gt;" style="ellipse;whiteSpace=wrap;html=1;aspect=fixed;fillColor=#f9f7ed;strokeColor=#36393d;" vertex="1" parent="705">
                    <mxGeometry x="5" y="9" width="40" height="40" as="geometry"/>
                </mxCell>
                <mxCell id="708" value="" style="whiteSpace=wrap;html=1;aspect=fixed;fillColor=#f9f7ed;strokeColor=#000000;" vertex="1" parent="705">
                    <mxGeometry x="10" y="14" width="30" height="30" as="geometry"/>
                </mxCell>
                <mxCell id="719" value="" style="group" vertex="1" connectable="0" parent="1">
                    <mxGeometry x="1430" y="1100" width="40" height="70" as="geometry"/>
                </mxCell>
                <mxCell id="720" value="" style="shape=offPageConnector;whiteSpace=wrap;html=1;strokeColor=#000000;fontSize=16;fontColor=#000000;fillColor=#808080;rotation=-180;" vertex="1" parent="719">
                    <mxGeometry width="40" height="70" as="geometry"/>
                </mxCell>
                <mxCell id="721" value="&lt;font color=&quot;#000000&quot;&gt;1&lt;/font&gt;" style="whiteSpace=wrap;html=1;aspect=fixed;fillColor=#f9f7ed;strokeColor=#000000;" vertex="1" parent="719">
                    <mxGeometry x="5" y="34.5" width="30" height="30" as="geometry"/>
                </mxCell>
                <mxCell id="722" value="" style="group;strokeColor=#000000;" vertex="1" connectable="0" parent="1">
                    <mxGeometry x="1470" y="1100" width="40" height="70" as="geometry"/>
                </mxCell>
                <mxCell id="723" value="" style="shape=offPageConnector;whiteSpace=wrap;html=1;strokeColor=#000000;fontSize=16;fontColor=#000000;fillColor=#808080;rotation=-180;" vertex="1" parent="722">
                    <mxGeometry width="40" height="70" as="geometry"/>
                </mxCell>
                <mxCell id="724" value="" style="whiteSpace=wrap;html=1;aspect=fixed;fillColor=#ffcd28;strokeColor=#000000;gradientColor=#ffa500;" vertex="1" parent="722">
                    <mxGeometry x="5" y="34.5" width="30" height="30" as="geometry"/>
                </mxCell>
                <mxCell id="726" value="" style="shape=offPageConnector;whiteSpace=wrap;html=1;strokeColor=#000000;fontSize=16;fontColor=#000000;fillColor=#808080;rotation=-180;" vertex="1" parent="1">
                    <mxGeometry x="10" y="5" width="40" height="60" as="geometry"/>
                </mxCell>
                <mxCell id="727" value="&lt;font color=&quot;#000000&quot;&gt;1&lt;br&gt;&lt;/font&gt;" style="whiteSpace=wrap;html=1;aspect=fixed;fillColor=#f9f7ed;strokeColor=#000000;" vertex="1" parent="1">
                    <mxGeometry x="15" y="29.5" width="30" height="30" as="geometry"/>
                </mxCell>
                <mxCell id="728" value="" style="shape=offPageConnector;whiteSpace=wrap;html=1;strokeColor=#000000;fontSize=16;fontColor=#000000;fillColor=#808080;rotation=-180;" vertex="1" parent="1">
                    <mxGeometry x="50" y="5" width="40" height="60" as="geometry"/>
                </mxCell>
                <mxCell id="729" value="&lt;font color=&quot;#000000&quot;&gt;2&lt;br&gt;&lt;/font&gt;" style="whiteSpace=wrap;html=1;aspect=fixed;fillColor=#808080;strokeColor=#000000;" vertex="1" parent="1">
                    <mxGeometry x="55" y="29.5" width="30" height="30" as="geometry"/>
                </mxCell>
                <mxCell id="730" value="" style="shape=offPageConnector;whiteSpace=wrap;html=1;strokeColor=#000000;fontSize=16;fontColor=#000000;fillColor=#808080;rotation=-180;" vertex="1" parent="1">
                    <mxGeometry x="90" y="5" width="40" height="60" as="geometry"/>
                </mxCell>
                <mxCell id="731" value="&lt;font color=&quot;#000000&quot;&gt;3&lt;br&gt;&lt;/font&gt;" style="whiteSpace=wrap;html=1;aspect=fixed;fillColor=#808080;strokeColor=#000000;" vertex="1" parent="1">
                    <mxGeometry x="95" y="29.5" width="30" height="30" as="geometry"/>
                </mxCell>
                <mxCell id="732" value="" style="shape=offPageConnector;whiteSpace=wrap;html=1;strokeColor=#000000;fontSize=16;fontColor=#000000;fillColor=#808080;rotation=-180;" vertex="1" parent="1">
                    <mxGeometry x="130" y="5" width="40" height="60" as="geometry"/>
                </mxCell>
                <mxCell id="733" value="&lt;font color=&quot;#000000&quot;&gt;4&lt;br&gt;&lt;/font&gt;" style="whiteSpace=wrap;html=1;aspect=fixed;fillColor=#808080;strokeColor=#000000;" vertex="1" parent="1">
                    <mxGeometry x="135" y="29.5" width="30" height="30" as="geometry"/>
                </mxCell>
                <mxCell id="734" value="" style="shape=offPageConnector;whiteSpace=wrap;html=1;strokeColor=#000000;fontSize=16;fontColor=#000000;fillColor=#808080;rotation=-180;" vertex="1" parent="1">
                    <mxGeometry x="170" y="5" width="40" height="60" as="geometry"/>
                </mxCell>
                <mxCell id="735" value="&lt;font color=&quot;#000000&quot;&gt;5&lt;br&gt;&lt;/font&gt;" style="whiteSpace=wrap;html=1;aspect=fixed;fillColor=#808080;strokeColor=#000000;" vertex="1" parent="1">
                    <mxGeometry x="175" y="29.5" width="30" height="30" as="geometry"/>
                </mxCell>
                <mxCell id="736" value="" style="shape=offPageConnector;whiteSpace=wrap;html=1;strokeColor=#000000;fontSize=16;fontColor=#000000;fillColor=#808080;rotation=-180;" vertex="1" parent="1">
                    <mxGeometry x="210" y="5" width="40" height="60" as="geometry"/>
                </mxCell>
                <mxCell id="737" value="&lt;font color=&quot;#000000&quot;&gt;6&lt;br&gt;&lt;/font&gt;" style="whiteSpace=wrap;html=1;aspect=fixed;fillColor=#808080;strokeColor=#000000;" vertex="1" parent="1">
                    <mxGeometry x="215" y="29.5" width="30" height="30" as="geometry"/>
                </mxCell>
                <mxCell id="738" value="" style="shape=offPageConnector;whiteSpace=wrap;html=1;strokeColor=#000000;fontSize=16;fontColor=#000000;fillColor=#808080;rotation=-180;" vertex="1" parent="1">
                    <mxGeometry x="250" y="5" width="40" height="60" as="geometry"/>
                </mxCell>
                <mxCell id="739" value="&lt;font color=&quot;#000000&quot;&gt;7&lt;br&gt;&lt;/font&gt;" style="whiteSpace=wrap;html=1;aspect=fixed;fillColor=#808080;strokeColor=#000000;" vertex="1" parent="1">
                    <mxGeometry x="255" y="29.5" width="30" height="30" as="geometry"/>
                </mxCell>
                <mxCell id="740" value="" style="shape=offPageConnector;whiteSpace=wrap;html=1;strokeColor=#000000;fontSize=16;fontColor=#000000;fillColor=#808080;rotation=-180;" vertex="1" parent="1">
                    <mxGeometry x="290" y="5" width="40" height="60" as="geometry"/>
                </mxCell>
                <mxCell id="741" value="&lt;font color=&quot;#000000&quot;&gt;8&lt;br&gt;&lt;/font&gt;" style="whiteSpace=wrap;html=1;aspect=fixed;fillColor=#808080;strokeColor=#000000;" vertex="1" parent="1">
                    <mxGeometry x="295" y="29.5" width="30" height="30" as="geometry"/>
                </mxCell>
                <mxCell id="742" value="" style="shape=offPageConnector;whiteSpace=wrap;html=1;strokeColor=#000000;fontSize=16;fontColor=#000000;fillColor=#808080;rotation=-180;" vertex="1" parent="1">
                    <mxGeometry x="330" y="5" width="40" height="60" as="geometry"/>
                </mxCell>
                <mxCell id="743" value="&lt;font color=&quot;#000000&quot;&gt;9&lt;br&gt;&lt;/font&gt;" style="whiteSpace=wrap;html=1;aspect=fixed;fillColor=#808080;strokeColor=#000000;" vertex="1" parent="1">
                    <mxGeometry x="335" y="29.5" width="30" height="30" as="geometry"/>
                </mxCell>
                <mxCell id="744" value="" style="shape=offPageConnector;whiteSpace=wrap;html=1;strokeColor=#000000;fontSize=16;fontColor=#000000;fillColor=#808080;rotation=-180;" vertex="1" parent="1">
                    <mxGeometry x="370" y="5" width="40" height="60" as="geometry"/>
                </mxCell>
                <mxCell id="745" value="&lt;font color=&quot;#ffffff&quot;&gt;10&lt;/font&gt;" style="whiteSpace=wrap;html=1;aspect=fixed;fillColor=#000000;strokeColor=#000000;" vertex="1" parent="1">
                    <mxGeometry x="375" y="29.5" width="30" height="30" as="geometry"/>
                </mxCell>
                <mxCell id="747" value="" style="ellipse;whiteSpace=wrap;html=1;aspect=fixed;fillColor=#FFFFFF;strokeColor=#000000;" vertex="1" parent="1">
                    <mxGeometry x="100" y="1040" width="40" height="40" as="geometry"/>
                </mxCell>
                <mxCell id="748" value="" style="shape=actor;whiteSpace=wrap;html=1;strokeColor=#000000;fontSize=16;fontColor=#FFFFFF;fillColor=#FFFFFF;" vertex="1" parent="1">
                    <mxGeometry x="70" y="1020" width="30" height="60" as="geometry"/>
                </mxCell>
                <mxCell id="749" value="" style="ellipse;whiteSpace=wrap;html=1;aspect=fixed;fillColor=#ffcd28;strokeColor=#000000;gradientColor=#ffa500;" vertex="1" parent="1">
                    <mxGeometry x="180" y="1040" width="40" height="40" as="geometry"/>
                </mxCell>
                <mxCell id="750" value="" style="shape=actor;whiteSpace=wrap;html=1;strokeColor=#000000;fontSize=16;fillColor=#ffcd28;gradientColor=#ffa500;" vertex="1" parent="1">
                    <mxGeometry x="150" y="1020" width="30" height="60" as="geometry"/>
                </mxCell>
                <mxCell id="751" value="" style="ellipse;whiteSpace=wrap;html=1;aspect=fixed;fillColor=#e6d0de;strokeColor=#000000;gradientColor=#d5739d;" vertex="1" parent="1">
                    <mxGeometry x="260" y="1040" width="40" height="40" as="geometry"/>
                </mxCell>
                <mxCell id="752" value="" style="shape=actor;whiteSpace=wrap;html=1;strokeColor=#000000;fontSize=16;fillColor=#e6d0de;gradientColor=#d5739d;" vertex="1" parent="1">
                    <mxGeometry x="230" y="1020" width="30" height="60" as="geometry"/>
                </mxCell>
                <mxCell id="753" value="" style="ellipse;whiteSpace=wrap;html=1;aspect=fixed;" vertex="1" parent="1">
                    <mxGeometry x="340" y="1040" width="40" height="40" as="geometry"/>
                </mxCell>
                <mxCell id="754" value="" style="shape=actor;whiteSpace=wrap;html=1;fontSize=16;" vertex="1" parent="1">
                    <mxGeometry x="310" y="1020" width="30" height="60" as="geometry"/>
                </mxCell>
                <mxCell id="755" value="" style="group" vertex="1" connectable="0" parent="1">
                    <mxGeometry x="1120" y="600" width="40" height="70" as="geometry"/>
                </mxCell>
                <mxCell id="478" value="" style="shape=offPageConnector;whiteSpace=wrap;html=1;strokeColor=#000000;fontSize=16;fontColor=#000000;fillColor=#808080;rotation=-180;container=0;" vertex="1" parent="755">
                    <mxGeometry width="40" height="70" as="geometry"/>
                </mxCell>
                <mxCell id="479" value="" style="whiteSpace=wrap;html=1;aspect=fixed;fillColor=#ffcd28;strokeColor=#000000;container=0;gradientColor=#ffa500;" vertex="1" parent="755">
                    <mxGeometry x="5" y="34.5" width="30" height="30" as="geometry"/>
                </mxCell>
            </root>
        </mxGraphModel>
    </diagram>
</mxfile>